<svg width="1698" height="135" viewBox="0 0 1698 135" fill="none" xmlns="http://www.w3.org/2000/svg">
<mask id="mask0_93_444" style="mask-type:alpha" maskUnits="userSpaceOnUse" x="0" y="0" width="1698" height="135">
<path d="M0 0H1698V135H0V0Z" fill="#0028DF"/>
</mask>
<g mask="url(#mask0_93_444)">
<path d="M1630.71 175.988C1630.71 178.563 1630.7 181.139 1630.7 183.715C1630.77 183.928 1630.85 184.143 1630.92 184.356C1631.2 184.454 1631.47 184.55 1631.75 184.648C1688.03 184.599 1744.3 184.545 1800.58 184.53C1801.73 184.53 1802.88 184.981 1804.03 185.221C1804.09 212.481 1804.15 239.739 1804.21 267L1907.38 267C1906.57 264.131 1906.03 261.19 1905.75 258.188C1904.56 253.38 1904.68 248.578 1905.8 243.779C1909.69 222.383 1922.68 209.622 1943.41 204.208C1947.55 202.487 1951.76 202.484 1956 203.145L1956 70.7305C1939.73 95.026 1919.02 114.699 1892.75 128.498C1865.03 143.049 1835.47 149.327 1803.27 148.093L1803.27 37.3635C1745.8 37.4076 1688.34 37.4492 1630.87 37.4908C1630.81 64.4038 1630.75 91.3167 1630.7 118.232C1630.7 119.172 1630.71 120.11 1630.71 121.048C1630.71 139.359 1630.71 157.674 1630.71 175.988Z" fill="#337B7C"/>
<path d="M1472.09 254.667C1472.1 258.778 1472.09 262.889 1472.08 267L1630.24 267C1630.26 241.176 1630.27 215.353 1630.33 189.53C1630.33 188.039 1630.74 186.547 1630.96 185.059C1630.95 184.826 1630.94 184.594 1630.93 184.359C1630.85 184.143 1630.78 183.93 1630.7 183.715C1630.71 181.139 1630.71 178.561 1630.71 175.985C1630.71 157.673 1630.71 139.359 1630.71 121.045C1630.58 120.132 1630.45 119.219 1630.31 118.305C1622.12 104.251 1611.13 92.4746 1599.27 81.589C1572 56.5491 1540.39 39.5449 1504.05 31.6536C1503.3 31.4749 1502.55 31.2986 1501.79 31.1199C1501.49 31.0636 1501.19 31.0097 1500.89 30.9534C1500.1 30.7869 1499.31 30.6204 1498.53 30.4539C1498.2 30.4 1497.88 30.3437 1497.56 30.2874C1496.56 30.1111 1495.55 29.9348 1494.55 29.7586C1494.43 29.6876 1494.3 29.6606 1494.16 29.6729C1492.97 29.477 1491.78 29.2836 1490.59 29.0877C1490.47 29.024 1490.35 28.9996 1490.21 29.0142C1489.02 28.8135 1487.83 28.6127 1486.64 28.4119C1486.53 28.3483 1486.42 28.3262 1486.29 28.3458C1485.1 28.1548 1483.9 27.9663 1482.7 27.7753C1482.57 27.7068 1482.44 27.6799 1482.3 27.6896C1478.93 27.4375 1475.57 27.1877 1472.2 26.938C1471.96 79.4491 1471.73 131.96 1471.49 184.474C1471.59 184.895 1471.68 185.316 1471.78 185.737C1471.88 208.715 1472 231.691 1472.09 254.667Z" fill="#FF966D"/>
<path d="M1116.87 121.155L1116.73 119.221C1108.67 107.349 1100.73 95.4275 1090.69 85.0242C1059.68 52.9108 1021.89 34.4792 978 28.1794L978 267L1116.84 267C1116.86 239.269 1116.89 211.539 1116.91 183.808C1116.9 162.925 1116.89 142.04 1116.87 121.155Z" fill="#FED176"/>
<path d="M1630.64 3.2129L1630.57 3.20555C1630.67 14.6347 1630.77 26.0615 1630.87 37.4907C1630.81 64.4036 1630.75 91.3166 1630.69 118.232C1630.56 118.249 1630.44 118.274 1630.31 118.305C1622.12 104.252 1611.13 92.4747 1599.27 81.589C1572 56.5491 1540.38 39.5449 1504.05 31.6537C1503.3 31.4749 1502.54 31.2986 1501.79 31.1199C1501.48 31.0636 1501.18 31.0097 1500.88 30.9534C1500.1 30.7869 1499.31 30.6204 1498.52 30.4539C1498.2 30.4001 1497.88 30.3438 1497.56 30.2874C1496.55 30.1112 1495.55 29.9349 1494.54 29.7586C1494.42 29.6876 1494.29 29.6607 1494.15 29.6729C1492.97 29.477 1491.78 29.2836 1490.58 29.0877C1490.46 29.0241 1490.34 28.9996 1490.21 29.0143C1489.01 28.8135 1487.82 28.6127 1486.63 28.412C1486.52 28.3483 1486.41 28.3263 1486.29 28.3459C1485.09 28.1549 1483.89 27.9639 1482.7 27.7754C1482.57 27.7068 1482.44 27.6799 1482.29 27.6897C1478.9 27.1633 1475.5 26.6393 1472.11 26.1129C1471.9 18.7285 1471.7 11.3465 1471.49 3.96213C1471.48 3.72218 1471.47 3.48224 1471.46 3.24229L1471.39 3.26188L1471.69 3.33778L1472.01 3.31574C1524.89 3.28391 1577.76 3.24718 1630.64 3.2129Z" fill="#9DE9DA"/>
<path d="M1630.87 37.4907C1630.77 26.0615 1630.67 14.6348 1630.57 3.20557C1678.88 3.2178 1727.2 3.22025 1775.52 3.24718C1784.75 3.25207 1793.97 3.34021 1803.19 3.38918C1803.22 14.7131 1803.24 26.0394 1803.26 37.3633C1745.8 37.4074 1688.33 37.449 1630.87 37.4907Z" fill="#3DA8A5"/>
<path d="M1630.31 118.305C1630.44 118.274 1630.56 118.249 1630.69 118.232C1630.7 119.17 1630.7 120.11 1630.71 121.048C1630.58 120.134 1630.44 119.219 1630.31 118.305Z" fill="#D95A69"/>
<path d="M1471.49 184.476C1458.31 184.457 1445.12 184.435 1431.95 184.415C1420.43 120.365 1366.57 71.7366 1301.96 67.0626C1301.31 66.9892 1300.67 66.9182 1300.02 66.8447C1296.93 66.7492 1293.84 66.6537 1290.74 66.5583C1289.04 66.3159 1287.33 66.071 1285.63 65.8286C1285.62 65.6646 1285.62 65.503 1285.63 65.3389C1307.6 53.6013 1330.42 43.9251 1354.4 37.0892C1372.56 32.6233 1390.84 28.7842 1409.47 26.9038C1409.9 26.8621 1410.33 26.823 1410.76 26.7813C1412.96 26.5928 1415.16 26.4067 1417.36 26.2182C1417.89 26.1448 1418.42 26.0713 1418.95 25.9979C1421.93 25.8558 1424.91 25.7138 1427.89 25.5718C1428.11 25.5571 1428.34 25.54 1428.56 25.5253C1430.09 25.4714 1431.62 25.4151 1433.15 25.3613C1433.39 25.3564 1433.62 25.349 1433.86 25.3441C1439.7 25.2976 1445.55 25.2535 1451.4 25.207C1451.91 25.2511 1452.43 25.2927 1452.94 25.3368C1459.29 25.6991 1465.64 26.0615 1471.99 26.4239C1472.08 26.5904 1472.14 26.7618 1472.19 26.9405C1471.96 79.4516 1471.72 131.963 1471.49 184.476Z" fill="#D95A69"/>
<path d="M1472.2 26.9406C1472.15 26.7619 1472.08 26.588 1471.99 26.424L1472.11 26.1155C1475.5 26.6419 1478.9 27.1658 1482.29 27.6923C1478.93 27.4425 1475.56 27.1903 1472.2 26.9406Z" fill="#FED176"/>
<path d="M1490.59 29.0928C1491.78 29.2886 1492.97 29.4821 1494.16 29.6779C1492.97 29.4821 1491.78 29.2862 1490.59 29.0928Z" fill="#FED176"/>
<path d="M1486.63 28.417C1487.82 28.6178 1489.02 28.8185 1490.21 29.0193C1489.01 28.8185 1487.82 28.6178 1486.63 28.417Z" fill="#FED176"/>
<path d="M1482.7 27.7778C1483.89 27.9688 1485.09 28.1598 1486.29 28.3483C1485.09 28.1598 1483.89 27.9688 1482.7 27.7778Z" fill="#FED176"/>
<path d="M1494.54 29.761C1495.55 29.9373 1496.55 30.1136 1497.56 30.2898C1496.55 30.116 1495.55 29.9373 1494.54 29.761Z" fill="#FED176"/>
<path d="M1498.52 30.4565C1499.31 30.623 1500.1 30.7895 1500.88 30.956C1500.1 30.7895 1499.31 30.623 1498.52 30.4565Z" fill="#FED176"/>
<path d="M1501.79 31.1223C1502.55 31.2986 1503.3 31.4773 1504.05 31.6561C1503.3 31.4773 1502.54 31.2986 1501.79 31.1223Z" fill="#FED176"/>
<path d="M1285.63 65.3391C1285.62 65.5031 1285.62 65.6647 1285.63 65.8288C1285.66 66.1691 1285.69 66.507 1285.72 66.8448C1285.47 68.5514 1285 70.2579 1285 71.9669C1284.94 109.379 1284.93 146.793 1284.91 184.205C1284.88 184.315 1284.85 184.422 1284.81 184.528C1231.28 184.552 1177.74 184.574 1124.21 184.599C1123.9 184.606 1123.6 184.611 1123.29 184.616C1122.51 184.621 1121.72 184.626 1120.94 184.633C1120 184.636 1119.07 184.635 1118.14 184.638C1117.87 184.32 1117.61 184.001 1117.35 183.686C1117.19 162.842 1117.03 141.999 1116.87 121.156C1116.83 120.512 1116.78 119.865 1116.73 119.221C1116.8 81.6945 1116.87 44.1701 1116.94 6.64331C1116.94 16.765 1116.94 26.8868 1116.94 37.3954C1173.85 37.3954 1229.65 37.3954 1285.44 37.3953L1285.59 37.5423C1285.6 46.8095 1285.61 56.0743 1285.63 65.3391Z" fill="#337B7C"/>
<path d="M1116.86 3.23021C1070.64 3.23022 1024.42 3.23022 978 3.23022L978 28.1795C1021.89 34.4793 1059.68 52.9085 1090.69 85.0243C1100.73 95.4276 1108.67 107.349 1116.73 119.221C1116.8 81.6945 1116.87 44.1701 1116.94 6.6433C1116.91 5.50724 1116.89 4.36872 1116.86 3.23021Z" fill="#9DE9DA"/>
<path d="M1116.87 121.156C1117.03 141.999 1117.19 162.842 1117.35 183.686C1117.21 183.742 1117.06 183.783 1116.91 183.808C1116.9 162.925 1116.89 142.04 1116.87 121.156Z" fill="#99946D"/>
<path d="M1284.91 184.205C1284.93 146.793 1284.94 109.379 1285 71.9669C1285 70.2579 1285.47 68.5514 1285.72 66.8473C1287.39 66.7518 1289.07 66.6538 1290.74 66.5583C1293.83 66.6538 1296.93 66.7493 1300.02 66.8424C1300.66 66.9134 1301.31 66.9868 1301.96 67.0603C1366.57 71.7343 1420.43 120.362 1431.94 184.413C1398.47 184.432 1365 184.449 1331.53 184.484C1329.79 184.486 1328.04 184.645 1326.29 184.733C1319.3 184.797 1312.31 184.861 1305.33 184.924C1301.85 184.78 1298.39 184.635 1294.91 184.491C1291.58 184.396 1288.25 184.3 1284.91 184.205Z" fill="#3DA8A5"/>
<path d="M1275.81 3.47741C1279.09 3.46272 1282.37 3.45048 1285.64 3.43579C1288.15 3.59249 1290.64 3.88385 1293.15 3.88385C1352.59 3.92792 1412.04 3.9426 1471.49 3.96218C1471.7 11.3466 1471.9 18.7286 1472.11 26.113L1471.99 26.4215C1465.64 26.0591 1459.3 25.6967 1452.95 25.3344C1452.43 25.2927 1451.91 25.2487 1451.4 25.2046C1445.55 25.2511 1439.71 25.2952 1433.86 25.3417C1433.63 25.3466 1433.39 25.354 1433.15 25.3589C1431.62 25.4127 1430.1 25.469 1428.56 25.5229C1428.34 25.5376 1428.12 25.5547 1427.89 25.5694C1424.91 25.7114 1421.93 25.8534 1418.95 25.9954C1418.42 26.0689 1417.89 26.1424 1417.36 26.2158C1415.16 26.4043 1412.96 26.5904 1410.76 26.7789C1410.33 26.8206 1409.9 26.8597 1409.47 26.9014C1390.84 28.7817 1372.56 32.6209 1354.4 37.0868C1331.46 37.2386 1308.53 37.3904 1285.59 37.5422L1285.44 37.3953C1285.44 26.3431 1285.44 15.291 1285.44 4.17276C1281.41 3.88385 1278.61 3.68063 1275.81 3.47741Z" fill="#337B7C"/>
<path d="M1285.59 37.5421C1308.52 37.3903 1331.46 37.2385 1354.4 37.0867C1330.42 43.9251 1307.6 53.5988 1285.63 65.3389C1285.61 56.0741 1285.6 46.8093 1285.59 37.5421Z" fill="#5D5466"/>
<path d="M1290.74 66.5582C1289.07 66.6562 1287.39 66.7541 1285.72 66.8472C1285.69 66.5044 1285.66 66.1665 1285.63 65.8262C1287.33 66.071 1289.04 66.3159 1290.74 66.5582Z" fill="#99946D"/>
<path d="M1409.47 26.9015C1409.9 26.8599 1410.33 26.8207 1410.76 26.7791C1410.33 26.8207 1409.9 26.8623 1409.47 26.9015Z" fill="#5D5466"/>
<path d="M1427.89 25.5719C1428.11 25.5572 1428.34 25.5401 1428.56 25.5254C1428.34 25.5401 1428.12 25.5572 1427.89 25.5719Z" fill="#5D5466"/>
<path d="M1433.15 25.3614C1433.39 25.3565 1433.62 25.3516 1433.86 25.3442C1433.62 25.3491 1433.39 25.3565 1433.15 25.3614Z" fill="#5D5466"/>
<path d="M1275.81 3.47734C1278.61 3.68056 1281.41 3.88378 1285.44 4.17269C1285.44 15.2909 1285.44 26.3431 1285.44 37.3952C1229.65 37.3952 1173.86 37.3952 1116.94 37.3952C1116.94 26.8891 1116.94 16.7649 1116.94 6.64315C1116.92 5.49485 1116.89 4.34899 1116.86 3.20068C1168.53 3.23496 1220.2 3.26923 1271.87 3.3133C1273.18 3.3133 1274.5 3.42103 1275.81 3.47734Z" fill="#3DA8A5"/>
<path d="M652.708 175.988C652.705 178.563 652.7 181.139 652.698 183.715C652.774 183.928 652.847 184.143 652.923 184.356C653.199 184.454 653.473 184.55 653.749 184.648C710.026 184.599 766.3 184.545 822.576 184.53C823.728 184.53 824.88 184.981 826.034 185.221C826.092 212.481 826.148 239.739 826.207 267H929.376C928.572 264.131 928.034 261.19 927.746 258.188C926.557 253.38 926.684 248.578 927.799 243.779C931.694 222.383 944.682 209.622 965.406 204.208C969.548 202.487 973.76 202.484 978.003 203.145V70.7305C961.729 95.0261 941.022 114.699 914.746 128.498C887.031 143.049 857.474 149.327 825.266 148.093V37.3635C767.801 37.4076 710.336 37.4492 652.871 37.4908C652.813 64.4038 652.754 91.3167 652.695 118.232C652.7 119.172 652.708 120.11 652.715 121.048C652.708 139.359 652.708 157.674 652.708 175.988Z" fill="#337B7C"/>
<path d="M494.086 254.667C494.103 258.778 494.091 262.889 494.079 267H652.238C652.258 241.177 652.272 215.353 652.329 189.53C652.331 188.039 652.739 186.548 652.96 185.059C652.947 184.827 652.937 184.594 652.928 184.359C652.852 184.143 652.776 183.93 652.703 183.715C652.705 181.139 652.71 178.561 652.713 175.985C652.713 157.674 652.713 139.36 652.713 121.045C652.581 120.132 652.446 119.219 652.314 118.306C644.118 104.252 633.131 92.4749 621.275 81.5892C594.003 56.5493 562.387 39.5451 526.054 31.6539C525.299 31.4751 524.546 31.2989 523.793 31.1201C523.489 31.0638 523.186 31.0099 522.886 30.9536C522.098 30.7871 521.313 30.6206 520.526 30.4542C520.203 30.4003 519.883 30.344 519.563 30.2877C518.558 30.1114 517.55 29.9351 516.546 29.7588C516.426 29.6878 516.299 29.6609 516.159 29.6731C514.971 29.4772 513.78 29.2838 512.592 29.0879C512.472 29.0243 512.348 28.9998 512.213 29.0145C511.02 28.8137 509.829 28.6129 508.636 28.4122C508.531 28.3485 508.416 28.3265 508.294 28.3461C507.096 28.1551 505.9 27.9666 504.702 27.7756C504.575 27.707 504.44 27.6801 504.296 27.6899C500.932 27.4377 497.565 27.188 494.201 26.9382C493.964 79.4493 493.726 131.96 493.489 184.474C493.587 184.895 493.685 185.316 493.783 185.737C493.883 208.716 493.995 231.692 494.086 254.667Z" fill="#FF966D"/>
<path d="M138.874 121.155L138.734 119.221C130.673 107.349 122.729 95.4275 112.685 85.0242C81.6777 52.9109 43.8902 34.4792 0 28.1794V267H138.842C138.864 239.269 138.886 211.539 138.905 183.808C138.896 162.925 138.886 142.04 138.874 121.155Z" fill="#FED176"/>
<path d="M978 3.14446C977.716 3.14201 977.435 3.13711 977.152 3.13711C926.584 3.08814 876.014 3.04407 825.444 3C825.346 3.12242 825.263 3.25219 825.192 3.3893C825.217 14.7132 825.239 26.0396 825.263 37.3635C825.261 74.1778 825.261 110.992 825.261 148.093C857.471 149.327 887.029 143.049 914.741 128.498C941.017 114.699 961.724 95.026 977.998 70.7304V3.14446H978Z" fill="#5D5466"/>
<path d="M652.636 3.21291L652.566 3.20557C652.666 14.6348 652.766 26.0615 652.866 37.4907C652.808 64.4036 652.749 91.3166 652.69 118.232C652.563 118.249 652.436 118.274 652.311 118.305C644.116 104.252 633.128 92.4747 621.272 81.589C594 56.5491 562.384 39.5449 526.051 31.6537C525.298 31.4749 524.543 31.2986 523.787 31.1199C523.484 31.0636 523.181 31.0097 522.88 30.9534C522.095 30.7869 521.308 30.6204 520.521 30.4539C520.201 30.4001 519.878 30.3438 519.558 30.2874C518.553 30.1112 517.545 29.9349 516.538 29.7586C516.418 29.6876 516.291 29.6607 516.154 29.6729C514.966 29.477 513.775 29.2836 512.584 29.0877C512.465 29.0241 512.34 28.9996 512.208 29.0143C511.015 28.8135 509.822 28.6127 508.628 28.412C508.523 28.3483 508.408 28.3263 508.288 28.3459C507.093 28.1549 505.895 27.9639 504.697 27.7754C504.57 27.7068 504.435 27.6799 504.293 27.6897C500.897 27.1633 497.501 26.6393 494.105 26.1129C493.9 18.7285 493.697 11.3465 493.491 3.96213C493.479 3.72218 493.469 3.48224 493.457 3.24229L493.389 3.26188L493.694 3.33778L494.007 3.31574C546.885 3.28392 599.761 3.24719 652.636 3.21291Z" fill="#9DE9DA"/>
<path d="M652.866 37.4907C652.766 26.0615 652.666 14.6348 652.566 3.20557C700.884 3.21781 749.204 3.22026 797.522 3.24719C806.747 3.25209 815.972 3.34023 825.195 3.3892C825.217 14.7131 825.241 26.0395 825.263 37.3634C767.799 37.4074 710.331 37.4491 652.866 37.4907Z" fill="#3DA8A5"/>
<path d="M652.312 118.305C652.436 118.274 652.563 118.249 652.691 118.232C652.695 119.17 652.703 120.11 652.71 121.048C652.576 120.134 652.444 119.219 652.312 118.305Z" fill="#D95A69"/>
<path d="M493.487 184.476C480.306 184.457 467.125 184.435 453.946 184.415C442.43 120.365 388.569 71.7366 323.958 67.0626C323.312 66.9892 322.667 66.9182 322.021 66.8447C318.928 66.7492 315.835 66.6537 312.74 66.5583C311.038 66.3159 309.334 66.071 307.632 65.8286C307.618 65.6646 307.615 65.503 307.627 65.3389C329.598 53.6013 352.417 43.9251 376.403 37.0892C394.562 32.6233 412.836 28.7842 431.472 26.9038C431.899 26.8622 432.327 26.823 432.755 26.7814C434.956 26.5928 437.156 26.4068 439.357 26.2182C439.887 26.1448 440.418 26.0713 440.948 25.9979C443.929 25.8559 446.912 25.7139 449.892 25.5718C450.115 25.5572 450.34 25.54 450.562 25.5253C452.093 25.4715 453.621 25.4151 455.151 25.3613C455.386 25.3564 455.623 25.349 455.858 25.3441C461.704 25.2976 467.55 25.2536 473.396 25.207C473.912 25.2511 474.428 25.2927 474.944 25.3368C481.293 25.6992 487.641 26.0615 493.99 26.4239C494.076 26.5904 494.144 26.7618 494.193 26.9405C493.958 79.4516 493.724 131.963 493.487 184.476Z" fill="#D95A69"/>
<path d="M494.196 26.9406C494.147 26.7619 494.078 26.588 493.993 26.424L494.105 26.1155C497.501 26.6419 500.9 27.1658 504.293 27.6923C500.927 27.4425 497.562 27.1903 494.196 26.9406Z" fill="#FED176"/>
<path d="M512.587 29.0928C513.778 29.2886 514.968 29.4821 516.157 29.6779C514.966 29.4821 513.778 29.2862 512.587 29.0928Z" fill="#FED176"/>
<path d="M508.631 28.417C509.824 28.6178 511.017 28.8185 512.21 29.0193C511.015 28.8185 509.824 28.6178 508.631 28.417Z" fill="#FED176"/>
<path d="M504.697 27.7778C505.895 27.9688 507.093 28.1598 508.288 28.3483C507.09 28.1598 505.895 27.9688 504.697 27.7778Z" fill="#FED176"/>
<path d="M516.541 29.7612C517.548 29.9375 518.553 30.1138 519.56 30.2901C518.553 30.1162 517.548 29.9375 516.541 29.7612Z" fill="#FED176"/>
<path d="M520.523 30.4565C521.311 30.623 522.098 30.7895 522.883 30.956C522.096 30.7895 521.308 30.623 520.523 30.4565Z" fill="#FED176"/>
<path d="M523.79 31.1226C524.546 31.2988 525.299 31.4776 526.054 31.6563C525.299 31.4776 524.543 31.2988 523.79 31.1226Z" fill="#FED176"/>
<path d="M307.627 65.3391C307.615 65.5031 307.618 65.6647 307.632 65.8288C307.659 66.1691 307.686 66.507 307.715 66.8449C307.468 68.5514 307.004 70.2579 307.001 71.9669C306.94 109.379 306.931 146.793 306.911 184.205C306.882 184.315 306.847 184.422 306.808 184.528C253.275 184.552 199.744 184.574 146.211 184.599C145.903 184.606 145.595 184.611 145.289 184.616C144.507 184.621 143.722 184.626 142.937 184.633C142.003 184.636 141.069 184.635 140.135 184.638C139.874 184.32 139.612 184.001 139.35 183.686C139.191 162.842 139.032 141.999 138.873 121.156C138.827 120.512 138.781 119.865 138.734 119.221C138.803 81.6945 138.871 44.1701 138.94 6.64331C138.94 16.765 138.94 26.8868 138.94 37.3954C195.854 37.3954 251.647 37.3954 307.437 37.3954L307.586 37.5423C307.601 46.8095 307.613 56.0743 307.627 65.3391Z" fill="#337B7C"/>
<path d="M138.859 3.23022C92.6435 3.23022 46.4232 3.23022 0 3.23022V28.1795C43.8902 34.4793 81.6777 52.9085 112.685 85.0243C122.729 95.4276 130.673 107.349 138.734 119.221C138.803 81.6945 138.871 44.1701 138.94 6.64331C138.913 5.50725 138.886 4.36874 138.859 3.23022Z" fill="#9DE9DA"/>
<path d="M138.874 121.156C139.032 141.999 139.191 162.842 139.35 183.686C139.206 183.742 139.059 183.783 138.905 183.808C138.896 162.925 138.886 142.04 138.874 121.156Z" fill="#99946D"/>
<path d="M306.911 184.205C306.931 146.793 306.94 109.379 307.002 71.9669C307.004 70.2579 307.466 68.5514 307.716 66.8473C309.39 66.7518 311.065 66.6538 312.74 66.5583C315.833 66.6538 318.926 66.7493 322.019 66.8424C322.664 66.9134 323.31 66.9868 323.955 67.0603C388.567 71.7343 442.428 120.362 453.944 184.413C420.474 184.432 387.004 184.449 353.535 184.484C351.787 184.486 350.036 184.645 348.288 184.733C341.3 184.797 334.315 184.861 327.327 184.924C323.855 184.78 320.386 184.635 316.914 184.491C313.581 184.396 310.246 184.3 306.911 184.205Z" fill="#3DA8A5"/>
<path d="M297.809 3.47741C301.087 3.46272 304.366 3.45048 307.645 3.43579C310.146 3.59249 312.645 3.88385 315.146 3.88385C374.594 3.92792 434.042 3.94261 493.492 3.9622C493.697 11.3466 493.9 18.7286 494.105 26.113L493.993 26.4215C487.643 26.0591 481.296 25.6968 474.946 25.3344C474.431 25.2928 473.915 25.2487 473.399 25.2046C467.553 25.2511 461.707 25.2952 455.861 25.3417C455.626 25.3466 455.389 25.354 455.154 25.3589C453.624 25.4127 452.095 25.469 450.565 25.5229C450.342 25.5376 450.117 25.5547 449.895 25.5694C446.914 25.7114 443.932 25.8534 440.951 25.9955C440.421 26.0689 439.89 26.1424 439.359 26.2158C437.159 26.4043 434.958 26.5904 432.758 26.7789C432.33 26.8206 431.902 26.8597 431.474 26.9014C412.839 28.7817 394.562 32.6209 376.403 37.0868C353.464 37.2386 330.528 37.3904 307.589 37.5422L307.439 37.3953C307.439 26.3431 307.439 15.291 307.439 4.17276C303.415 3.88385 300.613 3.68063 297.809 3.47741Z" fill="#337B7C"/>
<path d="M307.586 37.5421C330.525 37.3903 353.461 37.2385 376.4 37.0867C352.415 43.9251 329.598 53.5988 307.627 65.3389C307.613 56.0741 307.601 46.8093 307.586 37.5421Z" fill="#5D5466"/>
<path d="M312.74 66.5582C311.065 66.6562 309.39 66.7541 307.715 66.8472C307.689 66.5044 307.662 66.1665 307.632 65.8262C309.334 66.071 311.038 66.3159 312.74 66.5582Z" fill="#99946D"/>
<path d="M431.472 26.9015C431.9 26.8599 432.327 26.8207 432.755 26.7791C432.327 26.8207 431.9 26.8623 431.472 26.9015Z" fill="#5D5466"/>
<path d="M449.892 25.5719C450.115 25.5572 450.34 25.5401 450.562 25.5254C450.34 25.5401 450.117 25.5572 449.892 25.5719Z" fill="#5D5466"/>
<path d="M455.151 25.3614C455.386 25.3565 455.623 25.3516 455.858 25.3442C455.623 25.3491 455.389 25.3565 455.151 25.3614Z" fill="#5D5466"/>
<path d="M297.808 3.47735C300.613 3.68057 303.415 3.88379 307.439 4.1727C307.439 15.2909 307.439 26.3431 307.439 37.3952C251.649 37.3952 195.857 37.3952 138.942 37.3952C138.942 26.8891 138.942 16.7649 138.942 6.64315C138.915 5.49485 138.888 4.34899 138.859 3.20068C190.529 3.23496 242.199 3.26924 293.872 3.31331C295.182 3.31331 296.495 3.42104 297.808 3.47735Z" fill="#3DA8A5"/>
</g>
</svg>
