<!-- <svg width="14" height="14" viewBox="0 0 14 14" fill="none" xmlns="http://www.w3.org/2000/svg">
    <path fill-rule="evenodd" clip-rule="evenodd"
        d="M7.44295 0.942C7.44322 0.88405 7.43203 0.826619 7.41004 0.773005C7.38804 0.719391 7.35567 0.670649 7.31479 0.629579C7.27391 0.588509 7.22531 0.55592 7.1718 0.533683C7.11828 0.511446 7.0609 0.499999 7.00295 0.5C5.63395 0.5 4.52795 0.541 3.38295 0.62C2.79637 0.659447 2.2442 0.911081 1.82959 1.3279C1.41498 1.74472 1.16628 2.29821 1.12995 2.885C1.04451 4.255 1.00182 5.62734 1.00195 7C1.00195 8.41 1.04595 9.786 1.12995 11.115C1.16631 11.7019 1.41515 12.2556 1.82997 12.6724C2.24478 13.0893 2.79719 13.3408 3.38395 13.38C4.52795 13.459 5.63395 13.5 7.00195 13.5C8.37095 13.5 9.47695 13.459 10.621 13.38C11.2077 13.3408 11.7601 13.0893 12.1749 12.6724C12.5898 12.2556 12.8386 11.7019 12.875 11.115C12.9416 10.061 12.9823 8.98033 12.997 7.873C12.997 7.833 12.9923 7.793 12.983 7.753C12.742 6.776 12.26 6.254 11.731 5.955C11.102 5.599 10.324 5.509 9.57095 5.514C8.42695 5.522 7.44295 4.661 7.44295 3.456V0.942ZM12.97 5.31C12.975 5.314 12.982 5.31 12.982 5.304C12.971 4.81186 12.809 4.33497 12.518 3.938C11.615 2.707 10.882 1.927 9.68595 1.004C9.55462 0.902667 9.41529 0.817 9.26795 0.747C8.98395 0.611 8.69295 0.85 8.69295 1.164V3.456C8.69295 3.906 9.04895 4.267 9.56295 4.264C10.386 4.258 11.431 4.348 12.347 4.867C12.567 4.99167 12.7743 5.13933 12.969 5.31"
        fill="#222021" />
</svg> -->
<svg xmlns="http://www.w3.org/2000/svg"  viewBox="0 0 24 24"><!-- Icon from
    Solar by 480 Design - https://creativecommons.org/licenses/by/4.0/ -->
    <path fill="currentColor"
        d="M15.728 3.884c1.434-1.44 3.532-1.47 4.694-.304c1.164 1.168 1.132 3.28-.303 4.72l-2.424 2.433a.75.75 0 0 0 1.063 1.059l2.424-2.433c1.91-1.919 2.15-4.982.303-6.838c-1.85-1.857-4.907-1.615-6.82.304L9.818 7.692c-1.912 1.919-2.152 4.982-.303 6.837a.75.75 0 1 0 1.062-1.058c-1.163-1.168-1.132-3.28.303-4.72z" />
    <path fill="currentColor"
        d="M14.485 9.47a.75.75 0 0 0-1.063 1.06c1.164 1.168 1.132 3.279-.303 4.72L8.27 20.116c-1.434 1.44-3.532 1.47-4.694.304c-1.163-1.168-1.132-3.28.303-4.72l2.424-2.433a.75.75 0 1 0-1.062-1.059l-2.424 2.433C.906 16.56.666 19.623 2.515 21.48c1.85 1.858 4.907 1.615 6.819-.304l4.848-4.867c1.91-1.918 2.15-4.982.303-6.837"
        opacity=".5" />
</svg>
