<svg width="14" height="14" viewBox="0 0 14 14" fill="none" xmlns="http://www.w3.org/2000/svg">
<path d="M10.0626 1.60352H3.93758C3.20271 1.60352 2.49794 1.89544 1.97831 2.41507C1.45867 2.93471 1.16675 3.63948 1.16675 4.37435V9.62435C1.16675 9.98822 1.23842 10.3485 1.37767 10.6847C1.51691 11.0209 1.72101 11.3263 1.97831 11.5836C2.49794 12.1033 3.20271 12.3952 3.93758 12.3952H10.0626C10.797 12.3936 11.5009 12.1012 12.0202 11.5819C12.5395 11.0626 12.8319 10.3587 12.8334 9.62435V4.37435C12.8319 3.63995 12.5395 2.93607 12.0202 2.41678C11.5009 1.89748 10.797 1.60506 10.0626 1.60352ZM7.93342 6.45685C7.64642 6.62052 7.32172 6.7066 6.99133 6.7066C6.66094 6.7066 6.33625 6.62052 6.04925 6.45685L2.05341 4.16435C2.10508 3.70077 2.32584 3.27252 2.67345 2.9615C3.02106 2.65047 3.47114 2.47852 3.93758 2.47852H10.0626C10.5287 2.47979 10.978 2.65219 11.3254 2.96297C11.6727 3.27376 11.8939 3.70128 11.9467 4.16435L7.93342 6.45685Z" fill="#222021"/>
</svg>
