<svg width="64" height="64" viewBox="0 0 64 64" fill="none" xmlns="http://www.w3.org/2000/svg">
<path d="M57.7919 5.58789H6.21429C5.98807 5.58789 5.80469 5.77128 5.80469 5.99749V42.3687C5.80469 42.5949 5.98807 42.7783 6.21429 42.7783H57.7919C58.0181 42.7783 58.2015 42.5949 58.2015 42.3687V5.99749C58.2015 5.77128 58.0181 5.58789 57.7919 5.58789Z" fill="#F2F2F2"/>
<path opacity="0.15" d="M57.7919 5.58789H53.3119V37.6199C53.3119 37.7285 53.2687 37.8327 53.1919 37.9095C53.1151 37.9863 53.0109 38.0295 52.9023 38.0295H5.80469V42.3751C5.80469 42.482 5.84717 42.5846 5.92278 42.6602C5.9984 42.7358 6.10095 42.7783 6.20789 42.7783H57.7919C57.8988 42.7783 58.0014 42.7358 58.077 42.6602C58.1526 42.5846 58.1951 42.482 58.1951 42.3751V5.99749C58.1959 5.94401 58.1861 5.89089 58.1663 5.84123C58.1464 5.79157 58.1168 5.74636 58.0793 5.70824C58.0418 5.67012 57.997 5.63985 57.9477 5.61918C57.8983 5.59852 57.8454 5.58788 57.7919 5.58789Z" fill="#13183F"/>
<path d="M31.8528 33.4149H49.92L46.1504 25.0949C43.7952 19.8981 37.9776 19.8981 35.6224 25.0949L31.8528 33.4149Z" fill="#0099F5"/>
<path opacity="0.15" d="M31.8655 33.4285H49.9199L46.1503 25.1085C43.8015 19.9117 37.9775 19.9117 35.6287 25.1085L31.8655 33.4285Z" fill="#13183F"/>
<path d="M14.2207 33.4148H35.9359L31.4047 20.7492C28.5759 12.8388 21.5807 12.8388 18.7519 20.7492L14.2207 33.4148Z" fill="#0099F5"/>
<path d="M35.5967 19.0215C36.9823 19.0215 38.1055 17.8983 38.1055 16.5127C38.1055 15.1271 36.9823 14.0039 35.5967 14.0039C34.2111 14.0039 33.0879 15.1271 33.0879 16.5127C33.0879 17.8983 34.2111 19.0215 35.5967 19.0215Z" fill="#F0457D"/>
<path d="M45.3695 47.7129H18.3679C18.1416 47.7129 17.9583 47.8963 17.9583 48.1225V50.2601C17.9583 50.4863 18.1416 50.6697 18.3679 50.6697H45.3695C45.5957 50.6697 45.7791 50.4863 45.7791 50.2601V48.1225C45.7791 47.8963 45.5957 47.7129 45.3695 47.7129Z" fill="#FFD44D"/>
<path d="M38.2718 51.5719C39.6114 51.5719 40.6974 50.4859 40.6974 49.1463C40.6974 47.8067 39.6114 46.7207 38.2718 46.7207C36.9322 46.7207 35.8462 47.8067 35.8462 49.1463C35.8462 50.4859 36.9322 51.5719 38.2718 51.5719Z" fill="#F0457D"/>
<path opacity="0.15" d="M38.8159 46.7784C39.1628 47.1151 39.4013 47.5477 39.5006 48.0208C39.5999 48.494 39.5556 48.986 39.3734 49.4337C39.1911 49.8815 38.8792 50.2646 38.4777 50.5338C38.0761 50.8031 37.6033 50.9462 37.1199 50.9448C36.9387 50.946 36.7581 50.9245 36.5823 50.8808C37.0431 51.3298 37.6634 51.5773 38.3068 51.5689C38.9501 51.5605 39.5637 51.2969 40.0127 50.836C40.4616 50.3752 40.7091 49.7549 40.7007 49.1115C40.6923 48.4682 40.4287 47.8546 39.9679 47.4056C39.652 47.0879 39.2526 46.866 38.8159 46.7656V46.7784Z" fill="#13183F"/>
<path d="M45.3887 54.5547H18.3871C18.1609 54.5547 17.9775 54.7381 17.9775 54.9643V57.1019C17.9775 57.3281 18.1609 57.5115 18.3871 57.5115H45.3887C45.615 57.5115 45.7983 57.3281 45.7983 57.1019V54.9643C45.7983 54.7381 45.615 54.5547 45.3887 54.5547Z" fill="#FFD44D"/>
<path d="M29.472 58.4137C30.8116 58.4137 31.8976 57.3277 31.8976 55.9881C31.8976 54.6485 30.8116 53.5625 29.472 53.5625C28.1324 53.5625 27.0464 54.6485 27.0464 55.9881C27.0464 57.3277 28.1324 58.4137 29.472 58.4137Z" fill="#F0457D"/>
<path opacity="0.15" d="M30.0159 53.6191C30.3628 53.9558 30.6013 54.3884 30.7006 54.8616C30.7999 55.3347 30.7556 55.8267 30.5734 56.2745C30.3911 56.7222 30.0792 57.1053 29.6777 57.3746C29.2761 57.6438 28.8033 57.7869 28.3199 57.7855C28.137 57.7854 27.9547 57.7661 27.7759 57.7279C28.2376 58.1769 28.8587 58.4241 29.5026 58.4151C30.1465 58.4061 30.7605 58.1416 31.2095 57.6799C31.6584 57.2183 31.9056 56.5971 31.8966 55.9532C31.8876 55.3093 31.6232 54.6953 31.1615 54.2463C30.843 53.938 30.4472 53.7214 30.0159 53.6191Z" fill="#13183F"/>
</svg>
