<svg width="64" height="64" viewBox="0 0 64 64" fill="none" xmlns="http://www.w3.org/2000/svg">
<path d="M42.7584 25.3495L37.1201 18.5143V13.1191H15.9553V18.5143L9.92005 25.3303C9.37032 25.9519 9.06749 26.7534 9.06885 27.5831V51.9031C9.06885 52.805 9.42669 53.6701 10.0638 54.3084C10.701 54.9468 11.5654 55.3062 12.4673 55.3079H40.1345C41.0335 55.3046 41.8947 54.945 42.5292 54.3081C43.1638 53.6711 43.5201 52.8086 43.5201 51.9095V27.5191C43.5244 26.7297 43.2553 25.9631 42.7584 25.3495Z" fill="#F2F2F2"/>
<path d="M43.5328 28.6641H9.06885V46.9105H43.5328V28.6641Z" fill="#F0457D"/>
<path d="M30.253 39.1862H22.3554C22.2326 39.1966 22.1091 39.1814 21.9925 39.1416C21.8759 39.1018 21.7689 39.0382 21.6782 38.9549C21.5875 38.8716 21.515 38.7703 21.4655 38.6575C21.416 38.5448 21.3904 38.4229 21.3904 38.2998C21.3904 38.1766 21.416 38.0547 21.4655 37.942C21.515 37.8292 21.5875 37.7279 21.6782 37.6446C21.7689 37.5613 21.8759 37.4977 21.9925 37.4579C22.1091 37.4181 22.2326 37.4029 22.3554 37.4134H30.253C30.4751 37.4322 30.682 37.5338 30.8327 37.698C30.9835 37.8621 31.0672 38.0769 31.0672 38.2998C31.0672 38.5226 30.9835 38.7374 30.8327 38.9016C30.682 39.0657 30.4751 39.1673 30.253 39.1862Z" fill="#F2F2F2"/>
<path d="M26.304 43.1352C26.1864 43.1361 26.0698 43.1135 25.9611 43.0687C25.8523 43.0239 25.7536 42.9578 25.6708 42.8743C25.5879 42.7909 25.5225 42.6917 25.4785 42.5827C25.4345 42.4736 25.4127 42.3568 25.4144 42.2392V34.3544C25.4144 34.1185 25.5081 33.8922 25.675 33.7254C25.8418 33.5586 26.0681 33.4648 26.304 33.4648C26.5399 33.4648 26.7662 33.5586 26.933 33.7254C27.0999 33.8922 27.1936 34.1185 27.1936 34.3544V42.2392C27.1953 42.3568 27.1735 42.4736 27.1295 42.5827C27.0855 42.6917 27.0201 42.7909 26.9372 42.8743C26.8544 42.9578 26.7557 43.0239 26.6469 43.0687C26.5382 43.1135 26.4216 43.1361 26.304 43.1352Z" fill="#F2F2F2"/>
<path d="M53.0432 47.6028C54.2493 46.3955 54.9268 44.7589 54.9268 43.0524C54.9268 41.3459 54.2493 39.7092 53.0432 38.502C51.8351 37.2975 50.1988 36.6211 48.4928 36.6211C46.7869 36.6211 45.1505 37.2975 43.9424 38.502L38.9824 43.4684L48.0832 52.5628L53.0432 47.6028Z" fill="#0099F5"/>
<path d="M38.9824 43.4609L34.0224 48.4209C33.4206 49.0161 32.9428 49.7248 32.6168 50.5058C32.2907 51.2869 32.1228 52.1249 32.1228 52.9713C32.1228 53.8177 32.2907 54.6557 32.6168 55.4368C32.9428 56.2179 33.4206 56.9265 34.0224 57.5217C34.6176 58.1235 35.3262 58.6013 36.1073 58.9274C36.8884 59.2534 37.7264 59.4213 38.5728 59.4213C39.4192 59.4213 40.2572 59.2534 41.0383 58.9274C41.8193 58.6013 42.528 58.1235 43.1232 57.5217L48.0832 52.5617L38.9824 43.4609Z" fill="#FFD44D"/>
<path opacity="0.15" d="M37.1008 13.1133H15.9424V18.5085H37.1008V13.1133Z" fill="#13183F"/>
<path d="M36.8577 4.58789H15.7505C14.9906 4.58789 14.3745 5.20395 14.3745 5.96389V12.7095C14.3745 13.4694 14.9906 14.0855 15.7505 14.0855H36.8577C37.6177 14.0855 38.2337 13.4694 38.2337 12.7095V5.96389C38.2337 5.20395 37.6177 4.58789 36.8577 4.58789Z" fill="#13183F"/>
</svg>
