<svg width="64" height="64" viewBox="0 0 64 64" fill="none" xmlns="http://www.w3.org/2000/svg">
<path d="M58.24 7.61523H31.8976C31.441 7.61523 31.0031 7.79662 30.6803 8.11948C30.3574 8.44234 30.176 8.88024 30.176 9.33683V28.1592C30.176 28.385 30.2206 28.6086 30.3072 28.8171C30.3938 29.0256 30.5207 29.215 30.6807 29.3743C30.8406 29.5337 31.0304 29.6599 31.2393 29.7457C31.4481 29.8315 31.6718 29.8753 31.8976 29.8744H58.24C58.6905 29.8677 59.1202 29.684 59.4363 29.3631C59.7525 29.0422 59.9297 28.6097 59.9296 28.1592V9.33683C59.9297 8.88573 59.7527 8.45261 59.4367 8.13065C59.1208 7.8087 58.6911 7.62362 58.24 7.61523Z" fill="#F2F2F2"/>
<path opacity="0.15" d="M58.24 28.2743H31.8912C31.6655 28.2743 31.4419 28.2298 31.2334 28.1432C31.0249 28.0566 30.8355 27.9297 30.6761 27.7697C30.5168 27.6098 30.3906 27.4199 30.3048 27.2111C30.2189 27.0022 30.1752 26.7785 30.176 26.5527V28.1591C30.176 28.614 30.3567 29.0503 30.6784 29.372C31.0001 29.6936 31.4363 29.8743 31.8912 29.8743H58.24C58.6905 29.8676 59.1202 29.6839 59.4364 29.363C59.7525 29.0421 59.9297 28.6096 59.9296 28.1591V26.5527C59.9314 27.0043 59.7549 27.4384 59.4386 27.7607C59.1223 28.083 58.6916 28.2676 58.24 28.2743Z" fill="#13183F"/>
<path d="M39.8016 10.502H34.7072C33.8695 10.502 33.1904 11.181 33.1904 12.0188V18.4444C33.1904 19.2821 33.8695 19.9612 34.7072 19.9612H39.8016C40.6393 19.9612 41.3184 19.2821 41.3184 18.4444V12.0188C41.3184 11.181 40.6393 10.502 39.8016 10.502Z" fill="#0099F5"/>
<path d="M50.8031 10.828H44.0959C44.0534 10.828 44.0112 10.8196 43.972 10.8031C43.9327 10.7866 43.8972 10.7625 43.8674 10.7321C43.8376 10.7017 43.8141 10.6656 43.7984 10.6261C43.7827 10.5865 43.7751 10.5442 43.7759 10.5016C43.7759 10.4168 43.8097 10.3354 43.8697 10.2754C43.9297 10.2154 44.0111 10.1816 44.0959 10.1816H50.8031C50.888 10.1816 50.9694 10.2154 51.0294 10.2754C51.0894 10.3354 51.1231 10.4168 51.1231 10.5016C51.124 10.5442 51.1163 10.5865 51.1006 10.6261C51.0849 10.6656 51.0615 10.7017 51.0317 10.7321C51.0019 10.7625 50.9663 10.7866 50.9271 10.8031C50.8878 10.8196 50.8457 10.828 50.8031 10.828Z" fill="#F2F2F2"/>
<path d="M56.3198 13.7025H44.0958C44.0219 13.6876 43.9554 13.6476 43.9076 13.5893C43.8598 13.531 43.8337 13.4579 43.8337 13.3825C43.8337 13.3071 43.8598 13.234 43.9076 13.1757C43.9554 13.1174 44.0219 13.0774 44.0958 13.0625H56.3198C56.3937 13.0774 56.4602 13.1174 56.508 13.1757C56.5558 13.234 56.5819 13.3071 56.5819 13.3825C56.5819 13.4579 56.5558 13.531 56.508 13.5893C56.4602 13.6476 56.3937 13.6876 56.3198 13.7025Z" fill="#F2F2F2"/>
<path d="M56.3201 25.2851H48.9601C48.9127 25.2946 48.8638 25.2935 48.8169 25.2818C48.77 25.2701 48.7263 25.2482 48.6889 25.2176C48.6515 25.187 48.6214 25.1484 48.6007 25.1048C48.5801 25.0611 48.5693 25.0134 48.5693 24.9651C48.5693 24.9168 48.5801 24.869 48.6007 24.8254C48.6214 24.7817 48.6515 24.7432 48.6889 24.7126C48.7263 24.6819 48.77 24.66 48.8169 24.6483C48.8638 24.6367 48.9127 24.6355 48.9601 24.6451H56.3201C56.394 24.6599 56.4605 24.6999 56.5083 24.7583C56.556 24.8166 56.5821 24.8897 56.5821 24.9651C56.5821 25.0405 56.556 25.1136 56.5083 25.1719C56.4605 25.2302 56.394 25.2702 56.3201 25.2851Z" fill="#F2F2F2"/>
<path d="M37.1199 19.3843V53.7587C37.1182 54.4541 36.8412 55.1206 36.3495 55.6123C35.8578 56.104 35.1913 56.381 34.4959 56.3827H4.87671C4.66284 56.3827 4.45773 56.2977 4.3065 56.1465C4.15527 55.9953 4.07031 55.7902 4.07031 55.5763V17.5603C4.07031 17.3464 4.15527 17.1413 4.3065 16.9901C4.45773 16.8389 4.66284 16.7539 4.87671 16.7539H34.5151C35.2083 16.7607 35.8708 17.0408 36.3586 17.5333C36.8463 18.0259 37.1199 18.6911 37.1199 19.3843Z" fill="#F2F2F2"/>
<path d="M21.4015 15.2382H34.5087C35.2047 15.2382 35.8721 15.5146 36.3642 16.0067C36.8563 16.4988 37.1327 17.1663 37.1327 17.8622V52.2366C37.1294 52.9315 36.8518 53.5969 36.3605 54.0883C35.8691 54.5797 35.2036 54.8572 34.5087 54.8606H4.87674C4.66228 54.8589 4.45718 54.7725 4.30613 54.6203C4.15509 54.468 4.07033 54.2622 4.07034 54.0478V15.9998C4.06949 15.8936 4.08976 15.7884 4.12999 15.6902C4.17021 15.592 4.22958 15.5027 4.30463 15.4277C4.37968 15.3526 4.46891 15.2933 4.56714 15.253C4.66536 15.2128 4.7706 15.1925 4.87674 15.1934H13.0495" fill="#F0457D"/>
<path d="M7.54554 21.9262V54.8606H4.87674C4.66228 54.8589 4.45718 54.7725 4.30613 54.6203C4.15509 54.468 4.07033 54.2622 4.07034 54.0478V15.9998C4.06949 15.8936 4.08976 15.7884 4.12999 15.6902C4.17021 15.592 4.22958 15.5027 4.30463 15.4277C4.37968 15.3526 4.46891 15.2933 4.56714 15.253C4.66536 15.2128 4.7706 15.1925 4.87674 15.1934H7.54554V17.9326" fill="#13183F"/>
<path d="M21.4016 22.8535C20.6272 22.8541 19.8704 23.0843 19.2268 23.5149C18.5832 23.9455 18.0817 24.5572 17.7856 25.2727L16.8256 27.5639C16.626 28.0447 16.5232 28.5601 16.5232 29.0807C16.5232 29.6013 16.626 30.1167 16.8256 30.5975L17.7856 32.8759C18.0817 33.5914 18.5832 34.2032 19.2268 34.6337C19.8704 35.0643 20.6272 35.2945 21.4016 35.2951C22.1746 35.2953 22.9301 35.0654 23.5718 34.6345C24.2135 34.2037 24.7124 33.5914 25.0048 32.8759L25.9648 30.5975C26.1676 30.1175 26.272 29.6018 26.272 29.0807C26.272 28.5597 26.1676 28.0439 25.9648 27.5639L24.96 25.2151C24.661 24.5179 24.1651 23.923 23.533 23.5036C22.901 23.0841 22.1602 22.8581 21.4016 22.8535Z" fill="#F2F2F2"/>
<path d="M23.603 43.1933H19.123C19.0805 43.1941 19.0382 43.1865 18.9986 43.1708C18.959 43.1551 18.923 43.1316 18.8926 43.1018C18.8622 43.072 18.8381 43.0365 18.8216 42.9972C18.8051 42.958 18.7966 42.9158 18.7966 42.8733C18.7966 42.8304 18.8051 42.788 18.8215 42.7484C18.8379 42.7088 18.8619 42.6728 18.8922 42.6425C18.9225 42.6122 18.9585 42.5881 18.9981 42.5717C19.0377 42.5553 19.0802 42.5469 19.123 42.5469H23.603C23.6459 42.5469 23.6883 42.5553 23.7279 42.5717C23.7675 42.5881 23.8035 42.6122 23.8338 42.6425C23.8641 42.6728 23.8882 42.7088 23.9046 42.7484C23.921 42.788 23.9294 42.8304 23.9294 42.8733C23.9294 42.9158 23.921 42.958 23.9045 42.9972C23.888 43.0365 23.8638 43.072 23.8335 43.1018C23.8031 43.1316 23.767 43.1551 23.7275 43.1708C23.6879 43.1865 23.6456 43.1941 23.603 43.1933Z" fill="#FFD44D"/>
<path d="M25.5424 40.7865H17.1776C17.1037 40.7716 17.0372 40.7316 16.9894 40.6733C16.9416 40.615 16.9155 40.5419 16.9155 40.4665C16.9155 40.3911 16.9416 40.318 16.9894 40.2597C17.0372 40.2013 17.1037 40.1613 17.1776 40.1465H25.5424C25.6163 40.1613 25.6828 40.2013 25.7306 40.2597C25.7784 40.318 25.8045 40.3911 25.8045 40.4665C25.8045 40.5419 25.7784 40.615 25.7306 40.6733C25.6828 40.7316 25.6163 40.7716 25.5424 40.7865Z" fill="#FFD44D"/>
<path d="M25.5423 50.8144H17.1775C17.1349 50.8152 17.0926 50.8076 17.053 50.7919C17.0135 50.7762 16.9774 50.7527 16.9471 50.7229C16.9167 50.6931 16.8925 50.6576 16.876 50.6183C16.8596 50.5791 16.8511 50.5369 16.8511 50.4944C16.8511 50.4515 16.8595 50.4091 16.8759 50.3695C16.8923 50.3299 16.9164 50.2939 16.9467 50.2636C16.977 50.2333 17.013 50.2092 17.0526 50.1928C17.0922 50.1764 17.1346 50.168 17.1775 50.168H25.5423C25.5848 50.168 25.627 50.1764 25.6662 50.1929C25.7055 50.2094 25.741 50.2335 25.7708 50.2639C25.8006 50.2943 25.8241 50.3304 25.8398 50.3699C25.8555 50.4095 25.8631 50.4518 25.8623 50.4944C25.8623 50.5792 25.8286 50.6606 25.7685 50.7206C25.7085 50.7807 25.6271 50.8144 25.5423 50.8144Z" fill="#FFD44D"/>
<path d="M22.5471 37.349H20.2495C20.146 37.349 20.0467 37.3079 19.9735 37.2346C19.9003 37.1614 19.8591 37.0621 19.8591 36.9586C19.8591 36.855 19.9003 36.7557 19.9735 36.6825C20.0467 36.6093 20.146 36.5682 20.2495 36.5682H22.5407C23.263 36.5632 23.9693 36.3545 24.5783 35.9662C25.1874 35.5779 25.6746 35.0257 25.9839 34.373L26.4383 33.3362C26.4756 33.2409 26.5488 33.164 26.6421 33.1221C26.7355 33.0802 26.8416 33.0767 26.9375 33.1122C26.9858 33.1293 27.0302 33.1559 27.0681 33.1904C27.1059 33.225 27.1365 33.2667 27.158 33.3132C27.1794 33.3597 27.1914 33.4101 27.1931 33.4613C27.1948 33.5125 27.1862 33.5635 27.1679 33.6114V33.6498L26.6879 34.6866C26.3238 35.4793 25.7405 36.1513 25.0067 36.6231C24.2729 37.0948 23.4195 37.3467 22.5471 37.349Z" fill="#F2F2F2"/>
<path d="M18.4703 36.9726C18.4176 36.9712 18.3656 36.9603 18.3167 36.9406C17.3202 36.506 16.5184 35.7201 16.0639 34.7326L15.0527 32.467C15.0231 32.3751 15.0287 32.2756 15.0682 32.1875C15.1077 32.0995 15.1784 32.0292 15.2667 31.9903C15.3549 31.9513 15.4545 31.9464 15.5462 31.9765C15.6379 32.0067 15.7151 32.0696 15.7631 32.1534L16.7743 34.3998C17.147 35.2143 17.8082 35.8618 18.6303 36.2174C18.7094 36.2553 18.7735 36.3188 18.8122 36.3976C18.8508 36.4764 18.8618 36.5659 18.8433 36.6517C18.8248 36.7375 18.7779 36.8146 18.7102 36.8705C18.6426 36.9264 18.558 36.9578 18.4703 36.9598V36.9726Z" fill="#F2F2F2"/>
<path d="M42.1696 48.2365C42.1696 48.2365 41.2608 48.8765 41.2288 48.7805C41.1968 48.6845 41.7984 47.8589 41.7984 47.8589L42.2592 47.7949L42.1696 48.2365Z" fill="#13183F"/>
<path d="M53.6895 34.5589L53.9519 34.2965C54.1748 34.0753 54.4762 33.9512 54.7903 33.9512C55.1043 33.9512 55.4057 34.0753 55.6287 34.2965L55.6927 34.3669C55.8028 34.4763 55.8901 34.6065 55.9498 34.7498C56.0094 34.8932 56.0401 35.0469 56.0401 35.2021C56.0401 35.3574 56.0094 35.5111 55.9498 35.6544C55.8901 35.7977 55.8028 35.9279 55.6927 36.0373L55.4367 36.2933L53.6895 34.5589Z" fill="#FFD44D"/>
<path d="M53.692 34.5323L42.8633 45.3535L44.6095 47.101L55.4382 36.2798L53.692 34.5323Z" fill="#0099F5"/>
<path d="M53.6896 34.5391L55.4368 36.2799L54.9248 36.7919L54.5664 37.1503L53.4784 38.2447L51.7312 36.4975L52.8256 35.4031L53.1776 35.0511L53.6896 34.5391Z" fill="#13183F"/>
<path d="M44.6079 47.1027L42.0479 48.3315C42.0149 48.2463 41.9625 48.1701 41.8946 48.1089C41.8268 48.0478 41.7456 48.0034 41.6575 47.9795L42.8799 45.3555L44.6079 47.1027Z" fill="#FFBEB3"/>
</svg>
