<svg width="64" height="64" viewBox="0 0 64 64" fill="none" xmlns="http://www.w3.org/2000/svg">
<path d="M54.6047 6.54883H9.39514C9.17246 6.54883 8.99194 6.72935 8.99194 6.95203V59.7776C8.99194 60.0003 9.17246 60.1808 9.39514 60.1808H54.6047C54.8274 60.1808 55.0079 60.0003 55.0079 59.7776V6.95203C55.0079 6.72935 54.8274 6.54883 54.6047 6.54883Z" fill="#F2F2F2"/>
<g opacity="0.15">
<path d="M54.5855 6.54791H51.5455V56.8455C51.5423 56.8985 51.5286 56.9503 51.5053 56.998C51.4819 57.0457 51.4494 57.0883 51.4096 57.1234C51.3697 57.1585 51.3233 57.1853 51.2731 57.2024C51.2228 57.2196 51.1697 57.2266 51.1167 57.2231H8.99194V59.7831C8.99855 59.889 9.04658 59.9879 9.12564 60.0586C9.2047 60.1293 9.30843 60.166 9.41434 60.1607H54.5855C54.6915 60.166 54.7952 60.1293 54.8742 60.0586C54.9533 59.9879 55.0013 59.889 55.0079 59.7831V6.91911C55.0013 6.81327 54.9533 6.71429 54.8742 6.64362C54.7952 6.57294 54.6915 6.53626 54.5855 6.54151V6.54791Z" fill="#13183F"/>
</g>
<path d="M44.915 47.9121H39.379C39.1563 47.9121 38.9758 48.0926 38.9758 48.3153V53.8513C38.9758 54.074 39.1563 54.2545 39.379 54.2545H44.915C45.1377 54.2545 45.3182 54.074 45.3182 53.8513V48.3153C45.3182 48.0926 45.1377 47.9121 44.915 47.9121Z" fill="#13183F"/>
<path d="M41.3183 44.7363H35.7824C35.5597 44.7363 35.3792 44.9168 35.3792 45.1395V50.6755C35.3792 50.8982 35.5597 51.0787 35.7824 51.0787H41.3183C41.541 51.0787 41.7216 50.8982 41.7216 50.6755V45.1395C41.7216 44.9168 41.541 44.7363 41.3183 44.7363Z" fill="#F0457D"/>
<g opacity="0.15">
<path d="M49.7472 21.3826H34.9696C34.8627 21.3826 34.7601 21.3401 34.6845 21.2645C34.6089 21.1889 34.5664 21.0863 34.5664 20.9794C34.5664 20.8724 34.6089 20.7699 34.6845 20.6943C34.7601 20.6187 34.8627 20.5762 34.9696 20.5762H49.7472C49.8541 20.5762 49.9567 20.6187 50.0323 20.6943C50.1079 20.7699 50.1504 20.8724 50.1504 20.9794C50.1504 21.0863 50.1079 21.1889 50.0323 21.2645C49.9567 21.3401 49.8541 21.3826 49.7472 21.3826Z" fill="#13183F"/>
</g>
<g opacity="0.15">
<path d="M43.6095 25.1137H34.9695C34.9127 25.1209 34.8551 25.116 34.8004 25.0992C34.7457 25.0823 34.6952 25.0541 34.6522 25.0162C34.6093 24.9784 34.5749 24.9319 34.5514 24.8797C34.5278 24.8275 34.5156 24.771 34.5156 24.7137C34.5156 24.6565 34.5278 24.5999 34.5514 24.5478C34.5749 24.4956 34.6093 24.4491 34.6522 24.4112C34.6952 24.3734 34.7457 24.3451 34.8004 24.3283C34.8551 24.3115 34.9127 24.3066 34.9695 24.3137H43.6095C43.6663 24.3066 43.724 24.3115 43.7787 24.3283C43.8334 24.3451 43.8839 24.3734 43.9268 24.4112C43.9697 24.4491 44.0041 24.4956 44.0277 24.5478C44.0512 24.5999 44.0634 24.6565 44.0634 24.7137C44.0634 24.771 44.0512 24.8275 44.0277 24.8797C44.0041 24.9319 43.9697 24.9784 43.9268 25.0162C43.8839 25.0541 43.8334 25.0823 43.7787 25.0992C43.724 25.116 43.6663 25.1209 43.6095 25.1137Z" fill="#13183F"/>
</g>
<g opacity="0.15">
<path d="M28.032 38.7915H13.2544C13.1977 38.7987 13.14 38.7937 13.0853 38.7769C13.0306 38.7601 12.9801 38.7318 12.9372 38.694C12.8942 38.6561 12.8598 38.6096 12.8363 38.5574C12.8127 38.5053 12.8005 38.4487 12.8005 38.3915C12.8005 38.3343 12.8127 38.2777 12.8363 38.2255C12.8598 38.1734 12.8942 38.1268 12.9372 38.089C12.9801 38.0511 13.0306 38.0229 13.0853 38.0061C13.14 37.9893 13.1977 37.9843 13.2544 37.9915H28.032C28.0888 37.9843 28.1465 37.9893 28.2012 38.0061C28.2559 38.0229 28.3064 38.0511 28.3493 38.089C28.3922 38.1268 28.4266 38.1734 28.4502 38.2255C28.4737 38.2777 28.4859 38.3343 28.4859 38.3915C28.4859 38.4487 28.4737 38.5053 28.4502 38.5574C28.4266 38.6096 28.3922 38.6561 28.3493 38.694C28.3064 38.7318 28.2559 38.7601 28.2012 38.7769C28.1465 38.7937 28.0888 38.7987 28.032 38.7915Z" fill="#13183F"/>
<path d="M28.032 21.8032H13.2544C13.1977 21.8104 13.14 21.8054 13.0853 21.7886C13.0306 21.7718 12.9801 21.7435 12.9372 21.7057C12.8942 21.6679 12.8598 21.6213 12.8363 21.5692C12.8127 21.517 12.8005 21.4604 12.8005 21.4032C12.8005 21.346 12.8127 21.2894 12.8363 21.2372C12.8598 21.1851 12.8942 21.1385 12.9372 21.1007C12.9801 21.0629 13.0306 21.0346 13.0853 21.0178C13.14 21.001 13.1977 20.996 13.2544 21.0032H28.032C28.0888 20.996 28.1465 21.001 28.2012 21.0178C28.2559 21.0346 28.3064 21.0629 28.3493 21.1007C28.3922 21.1385 28.4266 21.1851 28.4502 21.2372C28.4737 21.2894 28.4859 21.346 28.4859 21.4032C28.4859 21.4604 28.4737 21.517 28.4502 21.5692C28.4266 21.6213 28.3922 21.6679 28.3493 21.7057C28.3064 21.7435 28.2559 21.7718 28.2012 21.7886C28.1465 21.8054 28.0888 21.8104 28.032 21.8032Z" fill="#13183F"/>
</g>
<g opacity="0.15">
<path d="M28.0319 42.5291H13.2543C13.1473 42.5291 13.0448 42.4866 12.9692 42.411C12.8936 42.3353 12.8511 42.2328 12.8511 42.1259C12.8511 42.0189 12.8936 41.9164 12.9692 41.8407C13.0448 41.7651 13.1473 41.7227 13.2543 41.7227H28.0319C28.1388 41.7227 28.2414 41.7651 28.317 41.8407C28.3926 41.9164 28.4351 42.0189 28.4351 42.1259C28.4351 42.2328 28.3926 42.3353 28.317 42.411C28.2414 42.4866 28.1388 42.5291 28.0319 42.5291Z" fill="#13183F"/>
</g>
<g opacity="0.15">
<path d="M28.0319 25.5408H13.2543C13.1473 25.5408 13.0448 25.4983 12.9692 25.4227C12.8936 25.3471 12.8511 25.2445 12.8511 25.1376C12.8511 25.0306 12.8936 24.9281 12.9692 24.8525C13.0448 24.7769 13.1473 24.7344 13.2543 24.7344H28.0319C28.1388 24.7344 28.2414 24.7769 28.317 24.8525C28.3926 24.9281 28.4351 25.0306 28.4351 25.1376C28.4351 25.2445 28.3926 25.3471 28.317 25.4227C28.2414 25.4983 28.1388 25.5408 28.0319 25.5408Z" fill="#13183F"/>
</g>
<g opacity="0.15">
<path d="M28.032 46.3618H13.2544C13.1977 46.369 13.14 46.364 13.0853 46.3472C13.0306 46.3304 12.9801 46.3021 12.9372 46.2643C12.8942 46.2265 12.8598 46.1799 12.8363 46.1278C12.8127 46.0756 12.8005 46.019 12.8005 45.9618C12.8005 45.9046 12.8127 45.848 12.8363 45.7958C12.8598 45.7437 12.8942 45.6971 12.9372 45.6593C12.9801 45.6215 13.0306 45.5932 13.0853 45.5764C13.14 45.5596 13.1977 45.5546 13.2544 45.5618H28.032C28.0888 45.5546 28.1465 45.5596 28.2012 45.5764C28.2559 45.5932 28.3064 45.6215 28.3493 45.6593C28.3922 45.6971 28.4266 45.7437 28.4502 45.7958C28.4737 45.848 28.4859 45.9046 28.4859 45.9618C28.4859 46.019 28.4737 46.0756 28.4502 46.1278C28.4266 46.1799 28.3922 46.2265 28.3493 46.2643C28.3064 46.3021 28.2559 46.3304 28.2012 46.3472C28.1465 46.364 28.0888 46.369 28.032 46.3618Z" fill="#13183F"/>
</g>
<g opacity="0.15">
<path d="M21.8944 50.0942H13.2544C13.1977 50.1014 13.14 50.0964 13.0853 50.0796C13.0306 50.0628 12.9801 50.0346 12.9372 49.9967C12.8942 49.9589 12.8598 49.9123 12.8363 49.8602C12.8127 49.808 12.8005 49.7514 12.8005 49.6942C12.8005 49.637 12.8127 49.5804 12.8363 49.5283C12.8598 49.4761 12.8942 49.4296 12.9372 49.3917C12.9801 49.3539 13.0306 49.3256 13.0853 49.3088C13.14 49.292 13.1977 49.287 13.2544 49.2942H21.8944C21.9512 49.287 22.0089 49.292 22.0636 49.3088C22.1183 49.3256 22.1688 49.3539 22.2117 49.3917C22.2546 49.4296 22.289 49.4761 22.3126 49.5283C22.3361 49.5804 22.3483 49.637 22.3483 49.6942C22.3483 49.7514 22.3361 49.808 22.3126 49.8602C22.289 49.9123 22.2546 49.9589 22.2117 49.9967C22.1688 50.0346 22.1183 50.0628 22.0636 50.0796C22.0089 50.0964 21.9512 50.1014 21.8944 50.0942Z" fill="#13183F"/>
</g>
<path d="M37.6576 5.1208H34.3168C34.0718 4.73212 33.7322 4.41186 33.3299 4.18992C32.9275 3.96797 32.4755 3.85156 32.016 3.85156C31.5566 3.85156 31.1045 3.96797 30.7022 4.18992C30.2999 4.41186 29.9603 4.73212 29.7152 5.1208H26.368C26.2611 5.1208 26.1586 5.16328 26.0829 5.23889C26.0073 5.31451 25.9648 5.41706 25.9648 5.524V10.2216C25.9648 10.3285 26.0073 10.4311 26.0829 10.5067C26.1586 10.5823 26.2611 10.6248 26.368 10.6248H37.6576C37.7646 10.6248 37.8671 10.5823 37.9427 10.5067C38.0184 10.4311 38.0608 10.3285 38.0608 10.2216V5.4984C38.0543 5.39596 38.009 5.29987 37.9341 5.2297C37.8591 5.15954 37.7603 5.12059 37.6576 5.1208Z" fill="#FFD44D"/>
<g opacity="0.15">
<path d="M37.6511 5.12109H37.0431V8.82029C37.0431 8.92613 37.0015 9.02773 36.9273 9.10316C36.853 9.17859 36.7521 9.22181 36.6463 9.22349H25.9519V10.2219C25.9519 10.3288 25.9944 10.4314 26.07 10.507C26.1456 10.5826 26.2482 10.6251 26.3551 10.6251H37.6511C37.758 10.6251 37.8606 10.5826 37.9362 10.507C38.0118 10.4314 38.0543 10.3288 38.0543 10.2219V5.49869C38.0478 5.39626 38.0024 5.30016 37.9275 5.23C37.8526 5.15984 37.7537 5.12089 37.6511 5.12109Z" fill="#F0457D"/>
</g>
<g opacity="0.15">
<path d="M40.4224 35.7184H34.4C34.2942 35.7167 34.1932 35.6735 34.119 35.598C34.0448 35.5226 34.0032 35.421 34.0032 35.3152V31.5712C34.0032 31.4653 34.0448 31.3637 34.119 31.2883C34.1932 31.2129 34.2942 31.1696 34.4 31.168H40.4224C40.5282 31.1696 40.6291 31.2129 40.7033 31.2883C40.7776 31.3637 40.8192 31.4653 40.8192 31.5712V35.3152C40.8192 35.421 40.7776 35.5226 40.7033 35.598C40.6291 35.6735 40.5282 35.7167 40.4224 35.7184ZM34.8032 34.9184H40.0192V32H34.8032V34.9184Z" fill="#13183F"/>
</g>
<g opacity="0.15">
<path d="M49.6255 35.7184H43.6095C43.5026 35.7184 43.4 35.6759 43.3244 35.6003C43.2488 35.5247 43.2063 35.4221 43.2063 35.3152V31.5712C43.2063 31.4642 43.2488 31.3617 43.3244 31.2861C43.4 31.2104 43.5026 31.168 43.6095 31.168H49.6255C49.7324 31.168 49.835 31.2104 49.9106 31.2861C49.9862 31.3617 50.0287 31.4642 50.0287 31.5712V35.3152C50.0287 35.4221 49.9862 35.5247 49.9106 35.6003C49.835 35.6759 49.7324 35.7184 49.6255 35.7184ZM44.0127 34.9184H49.2287V32H44.0127V34.9184Z" fill="#13183F"/>
</g>
</svg>
