<svg width="98" height="98" viewBox="0 0 98 98" fill="none" xmlns="http://www.w3.org/2000/svg">
<path d="M25.6704 25.5332C28.1417 28.9656 30.7147 32.5592 34.1709 35.092C39.3822 38.8485 44.8081 42.6379 50.2999 46.2434C53.0459 48.0462 55.81 49.803 58.5794 51.4871C59.9583 52.3294 61.3435 53.1531 62.7224 53.9547C64.1076 54.7539 65.4801 55.5453 66.8649 56.2832C70.6016 58.1736 74.8523 58.8381 78.8341 59.2854C75.8255 56.6174 72.9242 53.674 69.4383 51.5944C68.1129 50.8427 66.7634 50.095 65.4203 49.309C64.0772 48.5273 62.7229 47.7226 61.3734 46.8988C58.6696 45.2507 55.953 43.5261 53.2492 41.752C47.8408 38.2038 42.4802 34.4581 37.3107 30.7338C33.8485 28.2803 29.6759 26.9109 25.6704 25.5332Z" fill="#FED176"/>
<path d="M62.3575 14.6568C62.8112 13.7566 63.2586 12.8565 63.7006 11.9539C63.2111 11.8625 62.7157 11.7706 62.2203 11.6793C61.0565 14.4258 59.2533 17.8367 57.9102 21.9496C57.5996 22.8999 57.3492 23.8992 57.0508 24.9128C56.7582 25.9288 56.4598 26.9681 56.1497 28.0276C55.523 30.1456 54.8541 32.3417 54.1617 34.5838C52.7706 39.0686 51.2781 43.7361 49.7919 48.3325C48.3056 52.9294 46.837 57.4555 45.4939 61.6617C44.8253 63.7653 44.1866 65.788 43.6016 67.7019C43.0226 69.6193 42.6823 71.4837 42.4614 73.2188C41.9182 77.8557 42.0857 81.54 42.4439 83.2888C42.9334 81.5831 44.7119 78.5623 46.6878 74.433C47.4101 72.8812 48.1387 71.1682 48.7357 69.2817C49.3147 67.3917 49.9472 65.3832 50.6156 63.2919C51.9469 59.1078 53.4155 54.5871 54.9021 49.9835C56.3883 45.38 57.8926 40.6935 59.295 36.1729C59.9937 33.9128 60.6684 31.694 61.301 29.5468C61.6176 28.4735 61.9219 27.4181 62.2203 26.3842C62.5069 25.3486 62.8112 24.3433 63.0317 23.3423C63.9808 19.0151 63.9456 14.9821 63.7069 11.9169C63.6653 11.3373 63.3125 11.0149 62.9244 11.0471C62.5304 11.0597 62.2203 11.4196 62.232 11.6423C62.2678 12.6457 62.3158 13.6509 62.3575 14.6568Z" fill="#FED176"/>
<path d="M76.2794 38.0892C75.0019 37.2499 72.8949 36.9628 70.6145 37.1663C68.334 37.3675 65.8571 38.0545 63.7197 39.2001C62.0365 40.1146 60.4186 41.0637 58.974 41.8952C57.5354 42.725 56.2521 43.4407 55.3387 43.864C48.4979 47.0588 38.6726 49.8437 29.7842 52.7352C25.7907 54.1542 22.3758 56.8448 19.6001 59.284C23.2832 58.9454 27.4379 59.0086 31.4374 57.8341C40.2184 54.9897 50.1217 52.204 57.6011 48.735C58.8251 48.1649 60.1799 47.3996 61.6543 46.552C63.1229 45.7055 64.7046 44.7809 66.2868 43.9171C68.2924 42.8074 70.0593 41.392 71.6832 40.2393C73.3124 39.0884 74.7692 38.1942 76.2794 38.0892Z" fill="#FED176"/>
<path d="M40.0144 9.14062C40.1995 9.91066 40.4265 11.2801 40.725 13.1228C41.0294 14.9631 41.3935 17.2775 41.9965 19.8753C42.4501 21.8238 43.0587 23.9226 43.9243 26.0871C44.742 28.266 45.6136 30.5874 46.509 33.005C48.2999 37.8396 50.2039 43.0557 52.0845 48.2765C53.9588 53.4965 55.8095 58.7224 57.4985 63.5748C58.3462 66.0013 59.1518 68.3347 59.8981 70.5269C60.6086 72.7305 61.4808 74.7199 62.3642 76.4956C63.5402 78.8623 64.7099 80.8591 65.6232 82.4516C66.5366 84.0426 67.1991 85.223 67.5034 85.9178C67.5509 85.1564 67.5337 83.7726 67.4142 81.9155C67.2946 80.0599 67.0918 77.7236 66.6258 75.0938C66.2798 73.1225 65.7663 70.991 64.9843 68.7968C64.2321 66.5898 63.4266 64.2451 62.5725 61.8084C60.8776 56.9358 59.021 51.6938 57.1345 46.4577C55.2538 41.2219 53.3443 35.9903 51.5475 31.1378C50.6459 28.7119 49.7742 26.3796 48.9504 24.1895C48.5445 23.0905 48.1266 22.0363 47.661 21.0454C47.2013 20.0533 46.7181 19.1173 46.2286 18.2368C44.9154 15.8902 43.5842 13.9316 42.4978 12.3928C41.3994 10.8562 40.5397 9.73936 40.0144 9.14062Z" fill="#FED176"/>
<path d="M30.3503 16.1055C32.1829 20.2882 34.2486 24.6578 37.3527 28.2388C46.8977 38.7569 57.5887 49.53 66.6027 60.4605C69.6471 64.0649 73.5211 66.8751 77.1564 69.8954C75.6339 65.434 73.7837 60.8133 70.7452 57.0437C61.5107 45.8527 50.7718 35.0201 41.3162 24.6346C38.0927 21.2481 34.0991 18.7272 30.3503 16.1055Z" fill="#FED176"/>
<path d="M55.5944 4.90039C55.1647 6.07815 54.5982 7.81104 53.9833 9.98213C53.3742 12.1538 52.7117 14.7654 52.2516 17.7113C52.0787 18.8162 51.9415 19.9683 51.8518 21.1616C51.7626 22.3549 51.7327 23.5905 51.6729 24.8578C51.5715 27.393 51.476 30.0613 51.3863 32.8162C51.207 38.3259 51.058 44.1813 50.9624 50.0068C50.861 55.833 50.8012 61.6287 50.813 67.0192C50.813 69.7146 50.8375 72.3092 50.8733 74.7563C50.8733 77.2043 51.1119 79.5029 51.4578 81.5981C51.9175 84.3921 52.5505 86.8264 53.1415 88.784C53.7442 90.7405 54.3116 92.2257 54.783 93.1004C54.7354 92.113 54.8722 90.5877 55.123 88.6086C55.3675 86.6299 55.7316 84.203 55.9943 81.4354C56.1912 79.3593 56.3172 77.0916 56.2456 74.6739C56.2099 72.2563 56.1858 69.6862 56.1858 67.0113C56.1736 61.6625 56.2334 55.8981 56.3289 50.1004C56.4304 44.3031 56.5798 38.4722 56.7528 32.9893C56.8424 30.2476 56.9375 27.593 57.0389 25.0733C57.087 23.8132 57.1585 22.5877 57.1766 21.3998C57.1948 20.2119 57.159 19.0609 57.0992 17.9536C56.9321 15.0006 56.5739 12.3579 56.2755 10.1439C55.9707 7.92986 55.714 6.14622 55.5944 4.90039Z" fill="#FED176"/>
<path d="M76.2794 49.1947C72.5127 47.6127 68.9313 45.884 65.2005 45.3784C53.9839 43.8485 42.827 41.2798 31.4374 39.2162C27.6349 38.5249 23.5817 39.218 19.6001 40.0471C23.2295 41.8899 26.7393 43.8287 30.4761 44.5027C41.7045 46.5323 52.9333 49.1236 64.4718 50.7019C68.3223 51.2326 72.3638 50.3114 76.2794 49.1947Z" fill="#FED176"/>
<path d="M69.8857 25.9102C67.9576 27.8687 65.1043 29.8541 62.3226 32.5606C61.272 33.5653 60.3288 34.7598 59.3199 35.9805C58.3051 37.1994 57.2369 38.4566 56.1324 39.743C53.9176 42.3152 51.548 45.0038 49.1421 47.7408C46.7306 50.4783 44.2893 53.2644 41.9195 56.0354C39.5497 58.8092 37.2513 61.5591 35.1619 64.2551C32.4877 67.9365 31.1681 72.2514 30.3503 75.8461C33.0664 73.3299 36.547 70.9152 39.3825 67.5538C43.4596 62.3681 48.3602 56.7547 53.1714 51.2897C55.5773 48.555 57.9591 45.8533 60.2038 43.247C61.3259 41.9439 62.4118 40.6641 63.4506 39.4153C64.4894 38.1683 65.4983 36.963 66.2622 35.6534C68.3275 32.1894 69.3904 28.6077 69.8857 25.9102Z" fill="#FED176"/>
</svg>
