<svg width="56" height="56" viewBox="0 0 56 56" fill="none" xmlns="http://www.w3.org/2000/svg">
<path d="M48.7984 3.86328H7.20161C5.35831 3.86328 3.86401 5.35758 3.86401 7.20088V48.7977C3.86401 50.641 5.35831 52.1353 7.20161 52.1353H48.7984C50.6417 52.1353 52.136 50.641 52.136 48.7977V7.20088C52.136 5.35758 50.6417 3.86328 48.7984 3.86328Z" fill="#F0457D"/>
<path opacity="0.15" d="M52.136 40.8802V7.2018C52.136 6.31067 51.782 5.45604 51.1518 4.82592C50.5217 4.1958 49.6671 3.8418 48.776 3.8418H44.24C45.1311 3.8418 45.9857 4.1958 46.6158 4.82592C47.246 5.45604 47.6 6.31067 47.6 7.2018V35.4314L32.032 16.8898C32.032 16.8898 29.5512 17.8138 27.44 18.833C27.44 18.833 30.24 17.713 29.9488 22.2546C29.6576 26.7962 28.4592 39.1274 28.4592 39.1274L35.0504 47.6002H7.20155C6.31043 47.6002 5.4558 47.2462 4.82567 46.6161C4.19555 45.986 3.84155 45.1313 3.84155 44.2402V48.8042C3.84155 49.6953 4.19555 50.55 4.82567 51.1801C5.4558 51.8102 6.31043 52.1642 7.20155 52.1642H48.7984C49.6895 52.1642 50.5441 51.8102 51.1742 51.1801C51.8044 50.55 52.1584 49.6953 52.1584 48.8042V40.8802H52.136Z" fill="#13183F"/>
<path d="M23.9399 16.8906H32.0207V39.1282H28.4591V20.2282H23.9399V16.8906Z" fill="#F2F2F2"/>
</svg>
