<svg width="56" height="56" viewBox="0 0 56 56" fill="none" xmlns="http://www.w3.org/2000/svg">
<path d="M48.7984 3.86328H7.20161C5.35831 3.86328 3.86401 5.35758 3.86401 7.20088V48.7977C3.86401 50.641 5.35831 52.1353 7.20161 52.1353H48.7984C50.6417 52.1353 52.136 50.641 52.136 48.7977V7.20088C52.136 5.35758 50.6417 3.86328 48.7984 3.86328Z" fill="#FFD44D"/>
<path opacity="0.15" d="M52.136 39.3514V7.2018C52.136 6.31067 51.782 5.45604 51.1518 4.82592C50.5217 4.1958 49.6671 3.8418 48.776 3.8418H44.24C45.1311 3.8418 45.9857 4.1958 46.6158 4.82592C47.246 5.45604 47.6 6.31067 47.6 7.2018V34.261L33.9808 19.1074C33.9808 19.1074 34.3616 23.4362 32.2504 24.4498C32.2504 24.4498 32.2504 27.4234 24.5 33.5834C20.9272 36.4002 20.776 39.3906 20.776 39.3906L27.16 47.6002H7.20155C6.31043 47.6002 5.4558 47.2462 4.82567 46.6161C4.19555 45.986 3.84155 45.1313 3.84155 44.2402V48.8042C3.84155 49.6953 4.19555 50.55 4.82567 51.1801C5.4558 51.8102 6.31043 52.1642 7.20155 52.1642H48.7984C49.6895 52.1642 50.5441 51.8102 51.1742 51.1801C51.8044 50.55 52.1584 49.6953 52.1584 48.8042V39.3514H52.136Z" fill="#F0457D"/>
<path d="M30.7327 25.8393C31.3273 25.0838 31.663 24.1571 31.6903 23.1961C31.695 22.766 31.6063 22.34 31.4303 21.9474C31.2544 21.5549 30.9953 21.2052 30.6711 20.9225C29.9679 20.2851 29.0436 19.9475 28.0951 19.9817C26.2695 19.9817 24.7519 20.9151 23.5423 22.7817L20.5239 21.0345C21.3525 19.7152 22.452 18.5871 23.7495 17.7249C25.1301 16.9271 26.7092 16.5386 28.3023 16.6049C30.0898 16.5831 31.8246 17.2098 33.1855 18.3689C33.8806 18.9598 34.4308 19.7022 34.7939 20.5391C35.157 21.3759 35.3232 22.2849 35.2799 23.1961C35.2801 24.3479 34.9727 25.4789 34.3895 26.4721C33.4601 27.9337 32.3604 29.2796 31.1135 30.4817L25.8943 35.7961H35.9743V39.3913H20.7759V36.2105L27.4959 29.4345C28.6552 28.311 29.7366 27.1098 30.7327 25.8393Z" fill="#F2F2F2"/>
</svg>
