<svg width="56" height="56" viewBox="0 0 56 56" fill="none" xmlns="http://www.w3.org/2000/svg">
<path d="M48.7984 3.86328H7.20161C5.35831 3.86328 3.86401 5.35758 3.86401 7.20088V48.7977C3.86401 50.641 5.35831 52.1353 7.20161 52.1353H48.7984C50.6417 52.1353 52.136 50.641 52.136 48.7977V7.20088C52.136 5.35758 50.6417 3.86328 48.7984 3.86328Z" fill="#0099F5"/>
<path opacity="0.15" d="M52.136 37.9514V7.2018C52.136 6.31067 51.782 5.45604 51.1518 4.82592C50.5217 4.1958 49.6671 3.8418 48.776 3.8418H44.24C45.1311 3.8418 45.9857 4.1958 46.6158 4.82592C47.246 5.45604 47.6 6.31067 47.6 7.2018V32.4466L34.58 16.7666C34.58 16.7666 29.12 24.6962 27.02 25.7154C27.02 25.7154 34.6304 29.6914 32.7992 34.4458C31.164 38.7018 20.3336 36.9602 20.3336 36.9602L27.9552 47.6002H7.20155C6.31043 47.6002 5.4558 47.2462 4.82567 46.6161C4.19555 45.986 3.84155 45.1313 3.84155 44.2402V48.8042C3.84155 49.6953 4.19555 50.55 4.82567 51.1801C5.4558 51.8102 6.31043 52.1642 7.20155 52.1642H48.7984C49.6895 52.1642 50.5441 51.8102 51.1742 51.1801C51.8044 50.55 52.1584 49.6953 52.1584 48.8042V37.9514H52.136Z" fill="#13183F"/>
<path d="M21.5431 20.0924V16.7324H34.5519V19.6612L29.1759 25.6924C31.2143 25.7522 32.8047 26.3924 33.9471 27.6132C35.0756 28.7866 35.6937 30.3591 35.6663 31.9868C35.7163 32.9953 35.5343 34.0019 35.1343 34.929C34.7343 35.8561 34.127 36.6792 33.3591 37.3348C31.682 38.6697 29.5819 39.3592 27.4399 39.278C24.8914 39.2404 22.4139 38.4322 20.3335 36.9596L21.9239 33.9356C23.5856 35.1531 25.5872 35.819 27.6471 35.8396C28.7825 35.8865 29.9031 35.5686 30.8447 34.9324C31.2568 34.6381 31.5882 34.2448 31.8083 33.7887C32.0285 33.3327 32.1304 32.8286 32.1047 32.3228C32.1155 31.7886 31.9931 31.2602 31.7487 30.7851C31.5043 30.3099 31.1455 29.9031 30.7047 29.6012C29.5512 28.8607 28.1922 28.5057 26.8239 28.5876C26.0157 28.582 25.2113 28.699 24.4383 28.9348V26.0732L29.5903 20.0924H21.5431Z" fill="#F2F2F2"/>
</svg>
