<svg width="56" height="56" viewBox="0 0 56 56" fill="none" xmlns="http://www.w3.org/2000/svg">
<path d="M48.7984 3.86328H7.20161C5.35831 3.86328 3.86401 5.35758 3.86401 7.20088V48.7977C3.86401 50.641 5.35831 52.1353 7.20161 52.1353H48.7984C50.6417 52.1353 52.136 50.641 52.136 48.7977V7.20088C52.136 5.35758 50.6417 3.86328 48.7984 3.86328Z" fill="#F0457D"/>
<path opacity="0.15" d="M52.136 41.3891V7.22914C52.136 6.33801 51.782 5.48338 51.1518 4.85326C50.5217 4.22314 49.6671 3.86914 48.776 3.86914H44.24C45.1311 3.86914 45.9857 4.22314 46.6158 4.85326C47.246 5.48338 47.6 6.33801 47.6 7.22914V35.6603L32.5752 16.8555L20.2944 33.4987L30.8616 47.5995H7.20155C6.31043 47.5995 5.4558 47.2455 4.82567 46.6154C4.19555 45.9853 3.84155 45.1307 3.84155 44.2395V48.8035C3.84155 49.6947 4.19555 50.5493 4.82567 51.1794C5.4558 51.8095 6.31043 52.1635 7.20155 52.1635H48.804C49.6951 52.1635 50.5497 51.8095 51.1798 51.1794C51.81 50.5493 52.164 49.6947 52.164 48.8035V41.3891H52.136Z" fill="#13183F"/>
<path d="M29.8367 30.0883V26.0171H33.4039V30.0883H36.0751V33.4987H33.4039V39.0987H29.8367V33.4987H20.3167V30.1891L28.4703 16.8555H32.5751L24.5279 30.0883H29.8367Z" fill="#F2F2F2"/>
</svg>
