<svg width="56" height="56" viewBox="0 0 56 56" fill="none" xmlns="http://www.w3.org/2000/svg">
<path d="M48.7984 3.86328H7.20161C5.35831 3.86328 3.86401 5.35758 3.86401 7.20088V48.7977C3.86401 50.641 5.35831 52.1353 7.20161 52.1353H48.7984C50.6417 52.1353 52.136 50.641 52.136 48.7977V7.20088C52.136 5.35758 50.6417 3.86328 48.7984 3.86328Z" fill="#FFD44D"/>
<path opacity="0.15" d="M52.136 37.6994V7.2018C52.136 6.31067 51.782 5.45604 51.1518 4.82592C50.5217 4.1958 49.6671 3.8418 48.776 3.8418H44.24C45.1311 3.8418 45.9857 4.1958 46.6158 4.82592C47.246 5.45604 47.6 6.31067 47.6 7.2018V32.4018L34.1208 16.7218C34.1208 16.7218 20.2216 18.0826 22.6912 25.7154C22.6912 25.7154 33.7904 27.1882 32.9112 34.4178C32.3512 38.9426 20.2216 36.249 20.2216 36.249L28.98 47.6002H7.20155C6.31043 47.6002 5.4558 47.2462 4.82567 46.6161C4.19555 45.986 3.84155 45.1313 3.84155 44.2402V48.8042C3.84155 49.6953 4.19555 50.55 4.82567 51.1801C5.4558 51.8102 6.31043 52.1642 7.20155 52.1642H48.7984C49.6895 52.1642 50.5441 51.8102 51.1742 51.1801C51.8044 50.55 52.1584 49.6953 52.1584 48.8042V37.6994H52.136Z" fill="#F0457D"/>
<path d="M34.0928 16.7109V20.1157H24.7072V25.5925C25.6856 25.0721 26.78 24.8082 27.888 24.8253C29.8472 24.7848 31.7554 25.4507 33.264 26.7013C34.0033 27.3207 34.59 28.1021 34.9785 28.9849C35.367 29.8678 35.5468 30.8282 35.504 31.7917C35.5259 32.7989 35.326 33.7985 34.9186 34.7197C34.5112 35.641 33.9062 36.4615 33.1464 37.1229C31.5573 38.5419 29.4856 39.2992 27.356 39.2397C24.3694 39.2397 21.9838 38.2429 20.1992 36.2493L22.204 33.5109C22.4195 33.726 22.6476 33.928 22.8872 34.1157C23.437 34.4963 24.0289 34.812 24.6512 35.0565C25.5778 35.4453 26.5754 35.6361 27.58 35.6165C28.6237 35.6218 29.6405 35.2855 30.4752 34.6589C30.9092 34.3383 31.256 33.9141 31.4839 33.425C31.7118 32.9359 31.8136 32.3975 31.78 31.8589C31.8002 31.314 31.6844 30.7727 31.4429 30.2838C31.2014 29.795 30.8418 29.374 30.3968 29.0589C29.3683 28.3572 28.1409 28.0057 26.8968 28.0565C25.4933 28.0643 24.115 28.4306 22.8928 29.1205L21.28 27.4013V16.7109H34.0928Z" fill="#F2F2F2"/>
</svg>
