<svg width="24" height="24" viewBox="0 0 24 24" fill="none" xmlns="http://www.w3.org/2000/svg">
<path d="M11.0706 15.6278C11.7687 15.2633 12.5562 14.7439 13.2823 14.126C14.0076 13.5069 14.672 12.7928 15.1099 12.0153C15.3279 11.626 15.4897 11.2186 15.5606 10.7931C15.6318 10.3699 15.6075 9.92623 15.4537 9.50185C15.3009 9.07633 15.0222 8.67912 14.6258 8.32943C14.2288 7.97861 13.7152 7.67082 13.0696 7.40147C11.9257 6.92276 10.759 6.83333 9.65416 7.03025C8.54792 7.22715 7.50202 7.70245 6.5506 8.34186C4.64879 9.62294 3.10945 11.5525 2.19923 13.3927C1.34153 15.1298 1.13895 16.6689 1.48921 17.9749C1.83698 19.2819 2.72366 20.2903 3.84415 21.0067C4.96827 21.7275 6.33739 22.1824 7.76627 22.4291C9.19571 22.6759 10.6863 22.7121 12.0604 22.5639C14.039 22.3478 16.0863 21.6506 17.8376 20.503C19.5855 19.3577 21.0457 17.7473 21.7656 15.7047C22.4107 13.877 22.4896 12.2055 22.1022 10.7479C21.7168 9.28911 20.8726 8.0669 19.768 7.10948C18.6619 6.14981 17.2965 5.44251 15.8182 4.96833C14.3395 4.49415 12.7456 4.25192 11.1684 4.24173C9.59112 4.23155 8.03005 4.45112 6.61589 4.91738C5.20297 5.38477 3.93095 6.09884 2.96245 7.10153C1.99406 8.09969 1.34582 9.40453 1.22326 10.9323C1.0973 12.4612 1.47869 14.1883 2.44549 16.0996C3.64804 18.4831 5.4713 20.1319 7.52374 21.0802C9.57731 22.0297 11.8515 22.2934 14.0036 21.9731C16.1558 21.6518 18.1952 20.7475 19.7805 19.3227C21.3648 17.9013 22.4868 15.9389 22.7425 13.5907C22.8933 12.2315 22.7517 10.7479 22.2649 9.18047C21.7285 7.45463 21.0408 6.04002 20.2332 4.91058C19.4262 3.78229 18.4962 2.93915 17.4902 2.36991C16.4848 1.79953 15.4075 1.50644 14.3218 1.44985C13.2352 1.39327 12.1406 1.56981 11.074 1.9263C8.94051 2.64152 6.9106 4.07424 5.21668 5.90419C3.52366 7.73527 2.1689 9.96812 1.41169 12.2972C1.37558 12.4091 1.56763 12.4783 1.61098 12.3695C2.50559 10.1266 3.97124 8.04308 5.70601 6.38516C7.43977 4.72723 9.4449 3.50163 11.3925 2.96294C12.3664 2.69247 13.3239 2.59285 14.2309 2.68339C15.1386 2.77393 15.9962 3.0512 16.7967 3.54576C17.5969 4.04144 18.3441 4.75893 19.0153 5.75709C19.6861 6.75411 20.2777 8.03406 20.7516 9.63993C21.1617 11.0308 21.2673 12.2881 21.1443 13.4152C20.9281 15.3561 20.0295 16.9337 18.7069 18.1299C17.3854 19.3227 15.6318 20.1137 13.767 20.3944C11.902 20.6762 9.93538 20.4488 8.18657 19.6441C6.43686 18.8372 4.89641 17.4656 3.83623 15.3934C2.95724 13.6711 2.6664 12.2315 2.75863 11.0568C2.85414 9.88099 3.31418 8.94393 4.0611 8.15741C4.80779 7.37427 5.858 6.75866 7.09075 6.34559C8.32216 5.93139 9.73032 5.7209 11.1625 5.72316C12.5946 5.72429 14.0503 5.93706 15.3777 6.35466C16.706 6.77112 17.9036 7.39242 18.8341 8.19139C19.7661 8.9915 20.4319 9.95795 20.7468 11.1111C21.0594 12.2643 21.0285 13.6292 20.4705 15.2542C19.885 16.9575 18.657 18.3608 17.1049 19.3952C15.556 20.4296 13.6916 21.0825 11.9172 21.2873C10.666 21.4333 9.28081 21.4118 7.97426 21.1969C6.66727 20.9829 5.44018 20.5743 4.4985 19.9791C3.55319 19.3804 2.9044 18.6233 2.63743 17.6636C2.37295 16.7039 2.47627 15.4772 3.23564 13.8985C4.03926 12.2259 5.4722 10.4061 7.16635 9.24948C8.01296 8.67006 8.92104 8.25471 9.84541 8.08269C10.7712 7.91181 11.7118 7.97411 12.6724 8.36341C13.241 8.59541 13.6575 8.84772 13.9484 9.10122C14.2399 9.35472 14.4066 9.60371 14.4988 9.85041C14.5898 10.0971 14.6101 10.3506 14.5666 10.6324C14.523 10.912 14.4111 11.2175 14.2384 11.531C13.8948 12.1603 13.3087 12.8155 12.648 13.387C11.9879 13.9607 11.2537 14.4542 10.6282 14.7857C10.4235 14.8955 10.4261 15.1977 10.5214 15.3799C10.6167 15.5609 10.8651 15.7341 11.0706 15.6278Z" fill="black"/>
</svg>
