<svg width="63" height="63" viewBox="0 0 63 63" fill="none" xmlns="http://www.w3.org/2000/svg">
<path d="M23.5365 43.339L20.6759 40.4646C19.6969 39.4818 18.4033 38.875 17.0217 38.7504C15.6401 38.6259 14.2588 38.9916 13.1198 39.7835L11.7811 40.7147C11.0247 41.2405 10.4019 41.9359 9.96227 42.7454C9.52266 43.5549 9.27849 44.456 9.24925 45.3767L9.18232 47.4281C9.15732 48.2255 8.97103 49.0096 8.63469 49.733C8.29835 50.4564 7.81894 51.1042 7.22538 51.6373L6.241 52.5193C6.21059 52.5476 6.18992 52.5848 6.18194 52.6256C6.14069 52.8517 6.18412 53.085 6.30395 53.2811C6.42379 53.4772 6.61163 53.6223 6.83163 53.6887L11.9071 55.2303L12.669 55.3681C14.7324 55.7437 16.8586 55.564 18.8297 54.8476C20.8009 54.1312 22.5462 52.9037 23.8869 51.2908C24.8286 50.1591 25.3146 48.717 25.2498 47.2462C25.185 45.7753 24.5741 44.3835 23.5365 43.339Z" fill="#FFB02E"/>
<path d="M22.4083 33.6387L30.0963 34.6368L30.7066 42.0452L27.2022 45.5024C26.8304 45.8688 26.3283 46.0727 25.8062 46.069C25.2842 46.0653 24.785 45.8544 24.4184 45.4827L18.8862 39.8796C18.5197 39.5078 18.3159 39.0057 18.3196 38.4836C18.3233 37.9616 18.5342 37.4624 18.9059 37.0958L22.4083 33.6387Z" fill="#D3D3D3"/>
<path d="M22.4084 33.6394L30.7067 42.0459L56.7159 15.1469C57.6236 14.1997 58.126 12.9357 58.1163 11.6238C58.1066 10.3119 57.5856 9.05556 56.6639 8.12187C55.7423 7.18818 54.4928 6.65084 53.1812 6.62409C51.8695 6.59735 50.5991 7.08332 49.6402 7.97867L22.4084 33.6394Z" fill="#F92F60"/>
</svg>
