<svg width="51" height="51" viewBox="0 0 51 51" fill="none" xmlns="http://www.w3.org/2000/svg">
<g clip-path="url(#clip0_156_795)">
<path d="M46.6492 40.1095L49.1577 45.0633C49.2023 45.1515 49.2292 45.2476 49.2367 45.3461C49.2442 45.4447 49.2322 45.5437 49.2014 45.6376C49.1707 45.7315 49.1217 45.8185 49.0573 45.8934C48.9929 45.9684 48.9144 46.03 48.8263 46.0746C48.7363 46.12 48.6381 46.1469 48.5375 46.1538C48.437 46.1606 48.336 46.1473 48.2407 46.1146L42.9921 44.3022C41.4253 43.7612 40.5938 42.0526 41.1348 40.4857C41.6758 38.9189 43.3844 38.0874 44.9513 38.6284C45.7159 38.8925 46.3089 39.4415 46.6492 40.1095Z" fill="#2B2622"/>
<path d="M43.3594 33.1762L47.9713 42.6577L45.6975 45.2644L35.6775 41.983L43.3594 33.1762Z" fill="#E5AA6E"/>
<path d="M9.30184 17.2626L15.2846 10.4036C15.7982 9.81487 16.6918 9.75389 17.2806 10.2674L43.1255 32.811C43.2574 32.9261 43.3383 33.0889 43.3502 33.2635C43.3621 33.4382 43.3041 33.6105 43.1891 33.7424L36.2145 41.7384C36.0994 41.8704 35.9366 41.9512 35.7619 41.9631C35.5872 41.975 35.415 41.9171 35.283 41.802L9.43802 19.2585C8.84917 18.745 8.7882 17.8513 9.30184 17.2626Z" fill="#FFD469"/>
<path d="M2.50007 8.68163L5.86016 4.82947C7.09796 3.41039 9.2517 3.26345 10.6708 4.50125L13.9556 7.36645C14.0875 7.48154 14.1683 7.64433 14.1803 7.819C14.1922 7.99367 14.1342 8.16593 14.0191 8.29787L7.04453 16.2939C6.92944 16.4258 6.76665 16.5067 6.59198 16.5186C6.4173 16.5305 6.24505 16.4725 6.11311 16.3574L2.82829 13.4922C1.40922 12.2544 1.26228 10.1007 2.50007 8.68163Z" fill="#FF6E83"/>
<path d="M5.90364 16.1763L13.7461 7.18528L19.8837 12.5389L12.0413 21.5299L5.90364 16.1763Z" fill="#B9C5C6"/>
<path d="M16.0027 9.15343L8.16024 18.1444L7.34625 17.4344L15.1887 8.44341L16.0027 9.15343ZM17.4471 10.4133L9.60462 19.4043L10.4186 20.1143L18.2611 11.1233L17.4471 10.4133Z" fill="#96A9B2"/>
</g>
<defs>
<clipPath id="clip0_156_795">
<rect width="46.9453" height="46.9453" fill="white" transform="translate(3.19556 50.0312) rotate(-93.9032)"/>
</clipPath>
</defs>
</svg>
