<svg width="109" height="109" viewBox="0 0 109 109" fill="none" xmlns="http://www.w3.org/2000/svg">
<g clip-path="url(#clip0_156_784)">
<path d="M52.6909 94.5598L29.3181 85.8624L56.0028 14.1444L79.3757 22.8418L52.6909 94.5598Z" fill="#FFA000"/>
<path d="M52.6176 55.487L42.0524 51.5561L43.2436 48.3544L53.8089 52.2853L52.6176 55.487ZM51.4815 44.7533L45.5581 42.5494L46.7493 39.3477L52.6728 41.5516L51.4815 44.7533ZM59.3589 37.3719L48.7936 33.4409L49.9849 30.2392L60.5501 34.1701L59.3589 37.3719ZM52.2048 24.4043L53.3976 21.2018L59.3195 23.4064L58.1282 26.6081L52.2048 24.4043ZM37.9975 80.9843L32.0741 78.7804L33.2653 75.5787L39.1888 77.7825L37.9975 80.9843ZM45.8749 73.6028L35.3096 69.6719L36.5009 66.4702L47.0661 70.4011L45.8749 73.6028ZM44.7403 62.8684L38.8169 60.6646L40.0081 57.4628L45.9315 59.6667L44.7403 62.8684Z" fill="#9E6400"/>
</g>
<defs>
<clipPath id="clip0_156_784">
<rect width="82" height="82" fill="white" transform="translate(0 34.125) rotate(-24.5917)"/>
</clipPath>
</defs>
</svg>
