<svg width="32" height="32" viewBox="0 0 32 32" fill="none" xmlns="http://www.w3.org/2000/svg">
<g clip-path="url(#clip0_114_166)">
<path d="M4.1097 26.471C4.95084 26.311 5.81256 25.9682 6.73141 25.6527C8.08227 25.191 9.43313 24.6699 10.6857 24.327C11.0418 24.2294 11.4176 24.2294 11.7737 24.327L19.8057 26.343L29.4308 23.719L29.888 14.215C29.9915 11.1285 29.7654 8.03983 29.2137 5.0013C29.0011 3.83102 28.832 2.55559 27.9954 1.71216C27.7577 1.47216 27.4811 1.30987 27.1794 1.33959C26.0663 1.44244 24.8731 1.75102 24.0251 1.98416C23.0377 2.25616 21.9063 2.81159 20.8023 3.34187C20.3248 3.56913 19.7823 3.62014 19.2708 3.48587L11.2297 1.40587C9.83084 1.07444 7.68227 1.61616 6.36113 1.98187C5.5337 2.21044 4.60799 2.6333 3.68227 3.07902C3.34856 3.23673 3.06513 3.64587 2.85027 4.06187C2.4777 4.78187 2.32456 5.58873 2.18284 6.38416L2.06856 7.01959C1.13991 12.238 1.13991 17.5794 2.06856 22.7979C2.28799 24.0184 2.4297 25.3853 3.35541 26.2036C3.57941 26.4024 3.83541 26.5236 4.1097 26.4687" fill="#D7E0FF"/>
<path d="M29.9108 13.0057C29.9263 10.3217 29.6929 7.64208 29.2137 5.00117C29.0011 3.83088 28.832 2.55545 27.9954 1.71202C27.7577 1.47202 27.4811 1.30974 27.1794 1.33716C26.0663 1.44002 24.8731 1.74859 24.0251 1.98174C23.0377 2.25602 21.9063 2.81145 20.8023 3.33945C20.3248 3.56671 19.7823 3.61772 19.2708 3.48345L11.2297 1.40345C9.83084 1.07431 7.68227 1.61831 6.36113 1.98174C5.5337 2.21031 4.60799 2.63545 3.68227 3.07888C3.34856 3.23888 3.06513 3.64802 2.85027 4.06402C2.4777 4.78402 2.32456 5.58859 2.18284 6.38631L2.06856 7.02174C1.13991 12.2402 1.13991 17.5816 2.06856 22.8C2.28799 24.0183 2.4297 25.3852 3.35541 26.2057C3.57941 26.4046 3.83541 26.5235 4.1097 26.4709C4.95084 26.3109 5.81256 25.9657 6.73141 25.6503C8.08227 25.1886 9.43313 24.6675 10.6857 24.3246C11.0418 24.227 11.4176 24.227 11.7737 24.3246L14.4297 25.0126" stroke="black" stroke-linecap="round" stroke-linejoin="round"/>
<path d="M11.5749 24.3104C11.4124 24.271 11.246 24.2495 11.0789 24.2464V1.69099C11.0789 1.59499 11.0842 1.49975 11.0949 1.40527L19.4926 3.50813C19.7318 3.56604 19.9718 3.58356 20.2126 3.5607V12.4293" stroke="black" stroke-linecap="round" stroke-linejoin="round"/>
<path d="M30.6285 22.2421C30.6285 26.7747 25.3828 30.6992 24.8182 30.6992C24.2513 30.6992 19.0056 26.7747 19.0056 22.2421C19.0056 20.7008 19.6179 19.2226 20.7077 18.1328C21.7976 17.0429 23.2758 16.4307 24.817 16.4307C26.3583 16.4307 27.8365 17.0429 28.9263 18.1328C30.0162 19.2226 30.6285 20.7008 30.6285 22.2421Z" fill="white"/>
<path d="M24.8159 22.3587V22.0112M30.6285 22.2421C30.6285 26.7747 25.3828 30.6992 24.8182 30.6992C24.2513 30.6992 19.0056 26.7747 19.0056 22.2421C19.0056 20.7008 19.6179 19.2226 20.7077 18.1328C21.7976 17.0429 23.2758 16.4307 24.817 16.4307C26.3583 16.4307 27.8365 17.0429 28.9263 18.1328C30.0162 19.2226 30.6285 20.7008 30.6285 22.2421Z" stroke="black" stroke-linecap="round" stroke-linejoin="round"/>
</g>
<defs>
<clipPath id="clip0_114_166">
<rect width="32" height="32" fill="white"/>
</clipPath>
</defs>
</svg>
