<svg width="32" height="32" viewBox="0 0 32 32" fill="none" xmlns="http://www.w3.org/2000/svg">
<g clip-path="url(#clip0_114_230)">
<path d="M17.9133 25.5654C17.9898 27.3976 18.593 29.1688 19.6507 30.6668H12.3467C13.4037 29.1684 14.0068 27.3974 14.084 25.5654H17.9133Z" fill="#E3E3E3"/>
<path d="M30.6666 21.7383V24.2889C30.6666 24.6274 30.5322 24.9519 30.2929 25.1912C30.0536 25.4305 29.729 25.5649 29.3906 25.5649H2.60925C2.44164 25.5651 2.27563 25.5322 2.12074 25.4682C1.96585 25.4041 1.82512 25.3101 1.70659 25.1916C1.58807 25.0731 1.49409 24.9323 1.43003 24.7775C1.36596 24.6226 1.33308 24.4566 1.33325 24.2889V21.7383H30.6666Z" fill="white"/>
<path d="M30.6666 2.60901V21.7383H1.33325V2.60901C1.33325 2.27059 1.46769 1.94604 1.70698 1.70674C1.94628 1.46744 2.27084 1.33301 2.60925 1.33301H29.3919C29.5594 1.33301 29.7253 1.36602 29.88 1.43016C30.0348 1.4943 30.1753 1.58832 30.2937 1.70682C30.4121 1.82533 30.506 1.966 30.5699 2.1208C30.6339 2.27561 30.6668 2.4415 30.6666 2.60901Z" fill="#66E1FF"/>
<path d="M1.33325 2.60901V21.7383H6.89992L27.3066 1.33301H2.60925C2.27084 1.33301 1.94628 1.46744 1.70698 1.70674C1.46769 1.94604 1.33325 2.27059 1.33325 2.60901Z" fill="#C2F3FF"/>
<path d="M21.7359 7.70996H10.2559C9.91791 7.71031 9.5939 7.84472 9.35493 8.08369C9.11596 8.32266 8.98155 8.64667 8.9812 8.98463V15.362C8.98155 15.7001 9.11615 16.0244 9.3554 16.2634C9.59466 16.5024 9.91902 16.6366 10.2572 16.6366H21.7359C22.0738 16.6363 22.3978 16.5019 22.6368 16.2629C22.8758 16.0239 23.0102 15.6999 23.0105 15.362V8.98463C23.0105 8.64656 22.8762 8.32235 22.6372 8.0833C22.3981 7.84426 22.0739 7.70996 21.7359 7.70996Z" fill="#E3E3E3"/>
<path d="M10.2614 7.70996C9.92317 7.70996 9.59881 7.84421 9.35955 8.08322C9.1203 8.32223 8.9857 8.64644 8.98535 8.98463V15.362C8.9857 15.7001 9.1203 16.0244 9.35955 16.2634C9.59881 16.5024 9.92317 16.6366 10.2614 16.6366H12L20.928 7.70996H10.2614Z" fill="white"/>
<path d="M21.74 7.70996H10.26C9.92206 7.71031 9.59805 7.84472 9.35908 8.08369C9.12011 8.32266 8.9857 8.64667 8.98535 8.98463V15.362C8.9857 15.7001 9.1203 16.0244 9.35955 16.2634C9.59881 16.5024 9.92317 16.6366 10.2614 16.6366H21.74C22.0781 16.6366 22.4023 16.5023 22.6413 16.2633C22.8804 16.0242 23.0147 15.7 23.0147 15.362V8.98463C23.0147 8.81712 22.9817 8.65126 22.9175 8.49653C22.8534 8.34179 22.7594 8.20121 22.6409 8.08283C22.5224 7.96445 22.3817 7.87059 22.2269 7.80661C22.0721 7.74263 21.9075 7.70979 21.74 7.70996Z" stroke="#191919" stroke-linecap="round" stroke-linejoin="round"/>
<path d="M8.98659 9.62207L14.7253 12.5554C15.1129 12.7797 15.5528 12.8977 16.0006 12.8977C16.4484 12.8977 16.8883 12.7797 17.2759 12.5554L23.0146 9.62207M12.3493 30.6661C13.4063 29.1678 14.0094 27.3967 14.0866 25.5647M19.6493 30.6661C18.5927 29.1676 17.99 27.3966 17.9133 25.5647M10.2599 30.6661H21.7386M1.33325 21.7381H30.6666" stroke="#191919" stroke-linecap="round" stroke-linejoin="round"/>
<path d="M29.3919 1.33301H2.60925C2.27084 1.33301 1.94628 1.46744 1.70698 1.70674C1.46769 1.94604 1.33325 2.27059 1.33325 2.60901V24.289C1.33325 24.6274 1.46769 24.952 1.70698 25.1913C1.94628 25.4306 2.27084 25.565 2.60925 25.565H29.3919C29.5594 25.565 29.7253 25.532 29.88 25.4679C30.0348 25.4037 30.1753 25.3097 30.2937 25.1912C30.4121 25.0727 30.506 24.932 30.5699 24.7772C30.6339 24.6224 30.6668 24.4565 30.6666 24.289V2.60901C30.6668 2.4415 30.6339 2.27561 30.5699 2.1208C30.506 1.966 30.4121 1.82533 30.2937 1.70682C30.1753 1.58832 30.0348 1.4943 29.88 1.43016C29.7253 1.36602 29.5594 1.33301 29.3919 1.33301Z" stroke="#191919" stroke-linecap="round" stroke-linejoin="round"/>
</g>
<defs>
<clipPath id="clip0_114_230">
<rect width="32" height="32" fill="white"/>
</clipPath>
</defs>
</svg>
