<svg width="32" height="32" viewBox="0 0 32 32" fill="none" xmlns="http://www.w3.org/2000/svg">
<path d="M27.4786 4.46355C28.359 4.65778 29.1499 5.13906 29.7269 5.83174C30.304 6.52442 30.6346 7.38923 30.6666 8.29022V10.8396C30.6617 11.5145 30.3914 12.1605 29.9141 12.6377C29.4368 13.115 28.7909 13.3853 28.1159 13.3902H24.2893C23.6146 13.3843 22.9693 13.1137 22.4922 12.6366C22.0151 12.1595 21.7445 11.5142 21.7386 10.8396V8.92755C17.922 8.55242 14.0778 8.55242 10.2613 8.92755V10.8396C10.2553 11.5142 9.9847 12.1595 9.50764 12.6366C9.03057 13.1137 8.38523 13.3843 7.71059 13.3902H3.88392C3.20927 13.3843 2.56393 13.1137 2.08686 12.6366C1.6098 12.1595 1.33917 11.5142 1.33325 10.8396V8.29022C1.36529 7.38923 1.69582 6.52442 2.27289 5.83174C2.84997 5.13906 3.64086 4.65778 4.52125 4.46355C12.0954 2.91579 19.9044 2.91579 27.4786 4.46355Z" fill="#FF808C"/>
<path d="M27.4786 4.46355C19.9044 2.91579 12.0954 2.91579 4.52125 4.46355C3.64086 4.65778 2.84997 5.13906 2.27289 5.83174C1.69582 6.52442 1.36529 7.38923 1.33325 8.29022V10.4102C1.36529 9.50923 1.69582 8.64442 2.27289 7.95174C2.84997 7.25906 3.64086 6.77778 4.52125 6.58355C12.0954 5.03579 19.9044 5.03579 27.4786 6.58355C28.3592 6.77784 29.1502 7.25932 29.7273 7.95227C30.3044 8.64522 30.6348 9.51033 30.6666 10.4116V8.29155C30.6346 7.39056 30.304 6.52575 29.7269 5.83307C29.1499 5.14039 28.359 4.65778 27.4786 4.46355Z" fill="#FFBFC5"/>
<path d="M28.116 27.4207C28.1157 27.7589 27.9811 28.0831 27.7418 28.3221C27.5026 28.5611 27.1782 28.6953 26.84 28.6953H5.16003C4.82185 28.6953 4.49749 28.5611 4.25824 28.3221C4.01898 28.0831 3.88439 27.7589 3.88403 27.4207V24.87C3.89142 22.1662 4.96867 19.5753 6.88041 17.6633C8.79214 15.7513 11.3829 14.6738 14.0867 14.666H17.9134C20.6168 14.6745 23.207 15.7523 25.1184 17.6642C27.0298 19.5761 28.107 22.1666 28.1147 24.87L28.116 27.4207Z" fill="#FF808C"/>
<path d="M17.912 14.666H14.0854C11.3819 14.6745 8.79169 15.7523 6.88032 17.6642C4.96895 19.5761 3.89177 22.1666 3.88403 24.87V27.4207C3.8907 27.5551 3.91767 27.6877 3.96403 27.814C4.26706 25.34 5.46272 23.0617 7.32656 21.4067C9.19039 19.7518 11.5942 18.8342 14.0867 18.826H17.9134C20.4057 18.8347 22.8092 19.7526 24.6729 21.4074C26.5366 23.0622 27.7325 25.3402 28.036 27.814C28.0824 27.6877 28.1094 27.5551 28.116 27.4207V24.87C28.1083 22.1661 27.0307 19.5752 25.1188 17.6632C23.2069 15.7513 20.6159 14.6738 17.912 14.666Z" fill="#FFBFC5"/>
<path d="M27.4786 4.46355C28.359 4.65778 29.1499 5.13906 29.7269 5.83174C30.304 6.52442 30.6345 7.38923 30.6666 8.29022V10.8396C30.6617 11.5145 30.3914 12.1605 29.9141 12.6377C29.4368 13.115 28.7909 13.3853 28.1159 13.3902H24.2893C23.6146 13.3843 22.9693 13.1137 22.4922 12.6366C22.0151 12.1595 21.7445 11.5142 21.7386 10.8396V8.92755C17.922 8.55242 14.0778 8.55242 10.2613 8.92755V10.8396C10.2553 11.5142 9.98471 12.1595 9.50764 12.6366C9.03057 13.1137 8.38523 13.3843 7.71059 13.3902H3.88392C3.20927 13.3843 2.56393 13.1137 2.08686 12.6366C1.6098 12.1595 1.33917 11.5142 1.33325 10.8396V8.29022C1.36529 7.38923 1.69582 6.52442 2.27289 5.83174C2.84997 5.13906 3.64086 4.65778 4.52125 4.46355C12.0954 2.91579 19.9044 2.91579 27.4786 4.46355ZM28.1159 27.4209C28.1156 27.7591 27.981 28.0833 27.7417 28.3223C27.5025 28.5613 27.1781 28.6956 26.8399 28.6956H5.15992C4.82173 28.6956 4.49738 28.5613 4.25812 28.3223C4.01886 28.0833 3.88427 27.7591 3.88392 27.4209V24.8702C3.89131 22.1665 4.96856 19.5755 6.88029 17.6635C8.79203 15.7516 11.3828 14.674 14.0866 14.6662H17.9133C20.6167 14.6747 23.2069 15.7525 25.1183 17.6644C27.0297 19.5763 28.1069 22.1668 28.1146 24.8702L28.1159 27.4209Z" stroke="#191919" stroke-linecap="round" stroke-linejoin="round"/>
<path d="M15.9999 26.1448C17.1838 26.1448 18.3193 25.6745 19.1564 24.8373C19.9936 24.0002 20.4639 22.8647 20.4639 21.6808C20.4639 20.4969 19.9936 19.3614 19.1564 18.5243C18.3193 17.6871 17.1838 17.2168 15.9999 17.2168C14.816 17.2168 13.6805 17.6871 12.8434 18.5243C12.0062 19.3614 11.5359 20.4969 11.5359 21.6808C11.5359 22.8647 12.0062 24.0002 12.8434 24.8373C13.6805 25.6745 14.816 26.1448 15.9999 26.1448Z" fill="#E3E3E3"/>
<path d="M14.0867 12.1152V14.6659" stroke="#191919" stroke-linecap="round" stroke-linejoin="round"/>
<path d="M12.8427 24.8386C12.4282 24.4241 12.0993 23.932 11.875 23.3903C11.6506 22.8487 11.5352 22.2682 11.5352 21.682C11.5352 21.0957 11.6506 20.5152 11.875 19.9736C12.0993 19.432 12.4282 18.9398 12.8427 18.5253C13.2572 18.1108 13.7494 17.7819 14.291 17.5576C14.8326 17.3332 15.4131 17.2178 15.9994 17.2178C16.5856 17.2178 17.1661 17.3332 17.7077 17.5576C18.2494 17.7819 18.7415 18.1108 19.156 18.5253L12.8427 24.8386Z" fill="white"/>
<path d="M17.9132 12.1152V14.6659M15.9999 26.1446C17.1838 26.1446 18.3192 25.6743 19.1564 24.8371C19.9936 23.9999 20.4639 22.8645 20.4639 21.6806C20.4639 20.4966 19.9936 19.3612 19.1564 18.524C18.3192 17.6869 17.1838 17.2166 15.9999 17.2166C14.816 17.2166 13.6805 17.6869 12.8434 18.524C12.0062 19.3612 11.5359 20.4966 11.5359 21.6806C11.5359 22.8645 12.0062 23.9999 12.8434 24.8371C13.6805 25.6743 14.816 26.1446 15.9999 26.1446Z" stroke="#191919" stroke-linecap="round" stroke-linejoin="round"/>
</svg>
