<svg width="110" height="110" viewBox="0 0 110 110" fill="none" xmlns="http://www.w3.org/2000/svg">
<g clip-path="url(#clip0_77_251)">
<path d="M53.3476 95.215L29.9748 86.5176L56.6596 14.7996L80.0324 23.4971L53.3476 95.215Z" fill="#FFA000"/>
<path d="M53.2744 56.1428L42.7091 52.2118L43.9004 49.0101L54.4656 52.941L53.2744 56.1428ZM52.1383 45.4091L46.2148 43.2052L47.4061 40.0035L53.3295 42.2073L52.1383 45.4091ZM60.0156 38.0276L49.4504 34.0967L50.6416 30.895L61.2068 34.8259L60.0156 38.0276ZM52.8615 25.06L54.0543 21.8576L59.9762 24.0622L58.785 27.2639L52.8615 25.06ZM38.6543 81.64L32.7308 79.4362L33.9221 76.2344L39.8455 78.4383L38.6543 81.64ZM46.5316 74.2586L35.9664 70.3277L37.1576 67.126L47.7228 71.0569L46.5316 74.2586ZM45.397 63.5242L39.4736 61.3203L40.6649 58.1186L46.5883 60.3225L45.397 63.5242Z" fill="#9E6400"/>
</g>
<defs>
<clipPath id="clip0_77_251">
<rect width="82" height="82" fill="white" transform="translate(0.656738 34.7808) rotate(-24.5917)"/>
</clipPath>
</defs>
</svg>
