<svg width="124" height="124" viewBox="0 0 124 124" fill="none" xmlns="http://www.w3.org/2000/svg">
<path d="M17.7593 53.2499C18.7763 48.632 20.1517 43.092 22.5833 38.5054C23.7967 36.2133 25.2695 34.1644 27.0663 32.5706C28.866 30.9767 30.9795 29.8283 33.5501 29.3034C35.5685 28.9013 36.8893 29.207 37.8861 29.8595C38.8814 30.5167 39.6235 31.6315 40.1519 33.0785C41.2195 35.9605 41.317 39.9885 41.3651 42.9427C41.3733 43.4459 41.74 43.9081 42.2208 44.0285C42.6976 44.1658 43.2465 43.9515 43.5176 43.5013C44.8646 41.2694 46.896 37.9156 49.3029 34.5063C51.7063 31.1019 54.4955 27.642 57.2769 25.244C58.6644 24.0426 60.0471 23.1108 61.3323 22.5643C62.6231 22.0129 63.7806 21.8468 64.8396 22.0563C65.8973 22.273 66.9451 22.8556 68.0462 24.1196C69.1399 25.3813 70.2385 27.3267 71.2311 30.0979C72.0588 32.4068 72.1128 34.6146 72.114 37.316C72.114 37.9131 72.4953 38.4669 73.0329 38.6788C73.5648 38.9051 74.2245 38.7799 74.6523 38.3465C77.5954 35.3658 81.8982 31.5184 86.3771 29.2214C88.6134 28.0706 90.8802 27.3123 93.0043 27.1726C95.1365 27.0378 97.1093 27.4688 99.0295 28.7569C99.1919 28.8652 99.3543 28.9831 99.5168 29.1059C100.545 29.8908 101.275 30.707 101.789 31.5473C102.302 32.3899 102.605 33.2568 102.749 34.1789C103.037 36.016 102.652 38.1105 101.785 40.2774C100.067 44.6136 96.4651 49.0702 93.8016 52.0388C93.3844 52.5035 93.2833 53.1897 93.5301 53.7362C93.7638 54.29 94.3348 54.6824 94.9635 54.692C96.9469 54.7233 99.1311 54.5692 101.319 54.4922C103.505 54.4151 105.688 54.4151 107.593 54.7137C109.505 55.0098 111.094 55.5949 112.232 56.5676C112.805 57.0563 113.285 57.6438 113.675 58.4023C114.064 59.1631 114.361 60.1021 114.518 61.2818C114.764 63.0586 114.245 65.4158 113.064 67.8791C111.891 70.3417 110.089 72.9011 107.969 75.1523C105.851 77.4035 103.412 79.3515 101.016 80.6343C98.6184 81.9276 96.286 82.5247 94.4086 82.2984C93.9672 82.25 93.7285 82.1539 93.6981 82.1298C93.6937 82.1298 93.695 82.1298 93.6937 82.1273C93.695 82.1298 93.6993 82.1322 93.7055 82.1372C93.7185 82.1465 93.7402 82.1657 93.765 82.1924C93.8165 82.2476 93.8779 82.3461 93.9095 82.4478C93.943 82.5489 93.9473 82.6425 93.9436 82.6933C93.9417 82.7175 93.9386 82.7343 93.9374 82.7411C93.9368 82.7436 93.9368 82.7411 93.9368 82.7436C93.9368 82.7411 93.938 82.7386 93.9399 82.7343C93.9535 82.6884 94.0372 82.5247 94.1904 82.3344C94.4941 81.9419 95.0546 81.4459 95.6095 81.0776C95.8867 80.8898 96.1626 80.7335 96.3938 80.6225C96.622 80.5116 96.8142 80.4539 96.857 80.4471C97.901 80.2468 98.7579 80.2276 99.4399 80.3237C100.123 80.4179 100.63 80.6201 101.031 80.8798C101.431 81.1427 101.735 81.4676 101.98 81.8818C102.224 82.2934 102.402 82.7963 102.496 83.3741C102.691 84.5298 102.529 85.9818 102.014 87.3805C101.503 88.7842 100.648 90.1253 99.5726 91.1148C96.2109 94.2284 91.1666 96.7946 85.7881 98.5691C80.4127 100.351 74.6994 101.36 70.037 101.516C69.6433 101.531 69.0369 101.461 68.3506 101.29C67.6618 101.121 66.8874 100.859 66.1081 100.529C64.5482 99.8742 62.9622 98.933 61.9101 98.0129C61.3836 97.5554 60.9964 97.1052 60.8007 96.7686C60.7015 96.5999 60.6497 96.4648 60.6285 96.3805C60.6071 96.2912 60.6121 96.2602 60.6136 96.2459C60.6177 96.2335 60.6143 96.2267 60.6497 96.1709C60.6854 96.1207 60.7691 96.0221 60.9446 95.8969C61.2909 95.6439 62.0068 95.3141 63.1253 95.0518C63.2121 95.0301 63.2809 95.0152 63.3286 95.0084C63.3522 95.0059 63.3708 95.0034 63.3826 95.001C63.3943 95.001 63.3962 95.001 63.398 95.001C63.3918 94.991 63.2548 95.0344 62.8934 94.8615C62.7198 94.7722 62.4978 94.5942 62.3471 94.3512C62.1922 94.1075 62.1295 93.8335 62.124 93.6357C62.1233 93.234 62.2219 93.118 62.2294 93.0845C62.2312 93.0796 62.2325 93.0771 62.2331 93.0746C62.2325 93.0771 62.2337 93.0746 62.2331 93.0771C62.2318 93.0796 62.2275 93.0845 62.2201 93.0963C62.2064 93.1162 62.1822 93.1496 62.1488 93.1906C62.0818 93.2724 61.9802 93.3877 61.8538 93.5179C61.6002 93.7777 61.249 94.1007 60.852 94.4374C60.0567 95.1144 59.0744 95.8578 58.231 96.4406C57.8099 96.732 57.4216 96.985 57.1194 97.1679C56.9691 97.2571 56.8399 97.3291 56.7484 97.3774C56.7031 97.4016 56.6672 97.4183 56.6467 97.4276C56.621 97.4376 56.6268 97.4376 56.6467 97.4276C53.2852 98.5691 49.5724 99.6838 45.8463 100.414C42.1209 101.143 38.3852 101.48 34.9998 101.109C32.6968 100.854 31.3139 100.098 30.4519 99.1661C29.5958 98.2324 29.1692 97.0141 29.1381 95.5261C29.109 94.0474 29.5149 92.348 30.2815 90.7273C31.0445 89.1048 32.1619 87.5659 33.4692 86.3792C33.959 85.9316 34.6803 85.4809 35.5509 85.0983C36.4208 84.7158 37.4361 84.3928 38.5029 84.1547C40.6349 83.6754 42.9824 83.5384 44.7905 83.7597C45.6922 83.8658 46.4571 84.0629 46.9579 84.2917C47.2087 84.4052 47.3913 84.5205 47.5015 84.6147C47.6135 84.7083 47.6506 84.771 47.6628 84.7951C47.6734 84.8218 47.6763 84.8168 47.6766 84.877C47.6744 84.9346 47.6556 85.0648 47.5549 85.2812C47.3614 85.7096 46.8175 86.4369 45.8027 87.3161C45.0679 87.9584 43.9134 88.6205 42.4989 89.1723C41.0844 89.7285 39.4123 90.1854 37.6349 90.4917C33.9077 91.1439 29.7085 91.1272 26.3936 90.2263C24.7347 89.7812 23.3067 89.1215 22.2433 88.2839C21.1762 87.4407 20.4633 86.4561 20.0938 85.1994C19.7338 83.9501 19.7504 83.0108 19.9575 82.2525C20.1699 81.4943 20.5828 80.8631 21.2323 80.2735C21.879 79.6857 22.7667 79.168 23.8133 78.752C24.8587 78.3354 26.0566 78.0198 27.2941 77.8053C29.7687 77.3744 32.4072 77.3434 34.3174 77.5356C35.2673 77.6298 36.0474 77.786 36.4523 77.9237C36.552 77.9572 36.6264 77.9863 36.6656 78.0055C36.7049 78.0223 36.7087 78.0297 36.6635 77.9956C36.6209 77.9621 36.5176 77.8852 36.3986 77.68C36.2794 77.4878 36.1817 77.1146 36.2479 76.7847C36.1179 77.5095 35.8121 78.0533 35.2634 78.5858C34.7164 79.1128 33.9012 79.5871 32.8622 79.9529C30.7876 80.6969 27.8705 80.9766 24.8604 80.8271C21.8482 80.6827 18.7308 80.129 16.1996 79.3317C14.9349 78.9349 13.8165 78.4798 12.944 78.0055C12.07 77.5362 11.4522 77.0352 11.1717 76.6669C9.72589 74.8032 9.10112 72.8167 9.04215 70.6641C8.99541 68.7719 9.40163 66.7519 10.1533 64.7053C10.9035 62.6587 11.9961 60.5908 13.2796 58.6261C15.8447 54.692 19.1781 51.1697 21.97 48.9811C22.4672 48.5911 21.8321 47.7026 21.3036 48.0493C18.2126 50.0766 14.4731 53.3799 11.4683 57.3501C9.96713 59.334 8.65062 61.4865 7.70419 63.7375C6.75969 65.9887 6.18185 68.3434 6.20038 70.71C6.21557 73.3853 7.01296 76.0792 8.82739 78.4656C9.49333 79.3323 10.4083 80.0087 11.4982 80.625C12.5895 81.2339 13.8664 81.7658 15.2722 82.2259C18.0819 83.1435 21.4074 83.7647 24.6952 83.9544C27.9853 84.1379 31.2256 83.9017 33.9204 82.9723C35.2665 82.5055 36.4894 81.8526 37.4777 80.9257C38.4646 80.0038 39.192 78.7663 39.4368 77.3409C39.5243 76.8883 39.4022 76.3948 39.2156 76.0841C39.0294 75.7617 38.8159 75.5664 38.6238 75.417C38.2349 75.1306 37.8793 74.9861 37.4847 74.8491C36.7049 74.5887 35.7623 74.4157 34.6475 74.2979C32.4284 74.071 29.5684 74.0908 26.7375 74.572C25.3222 74.815 23.9156 75.1715 22.5999 75.6917C21.2853 76.2119 20.0555 76.8957 19.023 77.8226C17.9938 78.7446 17.1665 79.9387 16.7724 81.3715C16.3732 82.7987 16.4175 84.4095 16.9142 86.1213C17.4793 88.0935 18.6771 89.7043 20.1966 90.891C21.7192 92.0851 23.5531 92.8942 25.5309 93.4286C29.4891 94.4882 34.0628 94.474 38.2017 93.761C40.1748 93.4193 42.0475 92.9134 43.7109 92.2612C45.3743 91.6065 46.831 90.8116 47.98 89.8171C49.204 88.7458 50.0524 87.7538 50.56 86.6849C50.8101 86.1505 50.969 85.5869 50.9914 85.0041C51.0162 84.4244 50.8903 83.8341 50.6385 83.3288C50.388 82.8204 50.0289 82.4019 49.6301 82.0696C49.2295 81.7348 48.7869 81.4775 48.318 81.2655C47.3792 80.8464 46.3247 80.6033 45.1839 80.4663C42.9067 80.1966 40.2745 80.3646 37.7797 80.9189C36.533 81.1979 35.3229 81.5736 34.2115 82.0647C33.1009 82.5557 32.0848 83.1577 31.2371 83.9259C29.5806 85.4356 28.2297 87.3036 27.2813 89.3118C26.3368 91.3219 25.7881 93.4745 25.8223 95.5838C25.8546 97.6831 26.5087 99.7849 28.012 101.412C29.5101 103.047 31.7656 104.099 34.641 104.405C38.499 104.824 42.5406 104.434 46.4826 103.664C50.4242 102.894 54.2687 101.733 57.7109 100.565C57.9319 100.488 58.0957 100.409 58.2748 100.317C58.4513 100.226 58.6329 100.122 58.8269 100.004C59.2138 99.7706 59.6501 99.4866 60.1162 99.1636C61.0477 98.5163 62.0923 97.729 62.9963 96.9608C63.4489 96.5758 63.8661 96.1951 64.2257 95.8268C64.5872 95.4467 64.8892 95.1144 65.1564 94.6277C65.2804 94.3748 65.4385 94.0666 65.4317 93.508C65.4236 93.2364 65.3411 92.8892 65.1496 92.591C64.9617 92.2878 64.6852 92.0615 64.4384 91.9338C63.93 91.6809 63.5723 91.6908 63.261 91.6926C62.9498 91.7075 62.6677 91.7577 62.3583 91.8303C60.9765 92.1651 59.893 92.5885 59.0241 93.2023C58.5921 93.5105 58.2144 93.8719 57.9202 94.3028C57.6255 94.7288 57.4237 95.2273 57.3459 95.7307C57.2658 96.236 57.3057 96.737 57.4216 97.192C57.5378 97.6471 57.7254 98.0638 57.9529 98.4488C58.4113 99.2194 59.0282 99.8859 59.7384 100.507C61.1606 101.738 62.9808 102.794 64.8228 103.575C65.7441 103.962 66.6698 104.278 67.5626 104.499C68.4579 104.716 69.3153 104.843 70.1492 104.817C75.1855 104.644 81.1418 103.579 86.8247 101.697C92.5058 99.8091 97.9097 97.1176 101.803 93.5278C103.311 92.131 104.417 90.3665 105.097 88.5077C105.773 86.6489 106.032 84.6866 105.732 82.8421C105.58 81.9202 105.282 81.0243 104.801 80.2133C104.323 79.4018 103.656 78.677 102.82 78.1351C101.983 77.5889 100.989 77.2299 99.8863 77.0811C98.7814 76.9292 97.5687 76.9794 96.2407 77.2349C95.7869 77.3241 95.3888 77.4804 94.9839 77.6707C94.5816 77.8635 94.1804 78.0967 93.7849 78.3639C92.995 78.8989 92.2324 79.5462 91.6248 80.3119C91.3229 80.6969 91.0544 81.1136 90.8678 81.622C90.6867 82.1223 90.582 82.7727 90.8045 83.4584C90.913 83.7957 91.1015 84.1162 91.3359 84.376C91.5708 84.6358 91.8443 84.8385 92.1295 84.9948C92.7036 85.3054 93.3205 85.4548 94.0335 85.5391C96.8694 85.8566 99.7797 84.9923 102.558 83.5018C105.337 82.0045 108.007 79.8494 110.333 77.3744C112.658 74.8968 114.637 72.0994 115.984 69.2679C117.323 66.4363 118.064 63.5595 117.713 60.8556C117.514 59.3701 117.12 58.0628 116.539 56.9336C115.962 55.8068 115.197 54.863 114.311 54.1143C112.529 52.6094 110.335 51.8944 108.083 51.5453C105.823 51.201 103.462 51.2179 101.204 51.2997C98.9482 51.384 96.7906 51.5356 95.0156 51.5067C95.4031 52.3928 95.79 53.2763 96.1775 54.1599C98.9278 51.0637 102.724 46.441 104.719 41.4451C105.709 38.9436 106.26 36.3072 105.854 33.6949C105.652 32.3948 105.2 31.1091 104.463 29.9101C103.727 28.7087 102.71 27.6011 101.408 26.614C101.199 26.4575 100.989 26.3059 100.776 26.1638C98.2669 24.4688 95.4855 23.8764 92.7898 24.0762C90.086 24.2713 87.451 25.2054 84.966 26.4984C80.0017 29.0914 75.5786 33.1532 72.5381 36.2711C73.3838 36.6154 74.2301 36.9572 75.0764 37.3016C75.0479 34.5929 74.997 31.947 73.948 29.1059C72.8419 26.1204 71.5926 23.8813 70.1647 22.2634C68.7443 20.6502 67.0964 19.6631 65.3579 19.3429C63.6206 19.0203 61.8817 19.3574 60.2506 20.0797C58.6131 20.8044 57.0474 21.9142 55.5342 23.2529C52.5143 25.9374 49.6939 29.5634 47.2719 33.093C44.8536 36.6226 42.8439 40.0608 41.5264 42.3215C42.2439 42.5093 42.9614 42.6947 43.6789 42.8825C43.5715 39.9067 43.4591 35.7101 42.1659 32.3201C41.5139 30.6275 40.5378 29.0938 39.0152 28.1187C37.4941 27.1364 35.4972 26.8282 33.136 27.3603C30.2201 28.0032 27.7994 29.3755 25.8225 31.1933C23.8432 33.0135 22.297 35.2695 21.0551 37.7133C18.5755 42.608 17.2922 48.2829 16.3455 52.949C16.1868 53.7315 17.5876 54.0276 17.7593 53.2499Z" fill="black"/>
</svg>
