<svg width="22" height="22" viewBox="0 0 22 22" fill="none" xmlns="http://www.w3.org/2000/svg">
<g clip-path="url(#clip0_87_376)">
<path d="M10.9999 20.8216C17.2856 20.8216 20.8213 17.2859 20.8213 11.0001C20.8213 4.71443 17.2856 1.17871 10.9999 1.17871C4.71418 1.17871 1.17847 4.71443 1.17847 11.0001C1.17847 17.2859 4.71418 20.8216 10.9999 20.8216Z" fill="#D7E0FF"/>
<path d="M10.9999 20.8216C17.2856 20.8216 20.8213 17.2859 20.8213 11.0001C20.8213 4.71443 17.2856 1.17871 10.9999 1.17871C4.71418 1.17871 1.17847 4.71443 1.17847 11.0001C1.17847 17.2859 4.71418 20.8216 10.9999 20.8216Z" stroke="#0028DF" stroke-linecap="round" stroke-linejoin="round"/>
<path d="M4.90127 9.54523C8.72142 6.30494 12.5934 5.8618 14.7871 6.02366C15.0898 6.04358 15.375 6.17282 15.5895 6.38732C15.804 6.60182 15.9332 6.88696 15.9531 7.18965C16.115 9.38494 15.6718 13.2554 12.4331 17.0755C11.8926 17.7119 10.9403 17.7292 10.4343 17.0661C9.66427 16.0525 8.84085 14.5848 8.84085 13.1375C7.39199 13.1375 5.92427 12.3141 4.91227 11.5425C4.24913 11.0381 4.26485 10.0842 4.90127 9.54523Z" fill="white"/>
<path d="M8.88956 13.0872L11.7496 10.2272M4.90127 9.54523C8.72142 6.30494 12.5934 5.8618 14.7871 6.02366C15.0898 6.04358 15.375 6.17282 15.5895 6.38732C15.804 6.60182 15.9332 6.88696 15.9531 7.18966C16.115 9.38494 15.6718 13.2554 12.4331 17.0755C11.8926 17.7119 10.9403 17.7292 10.4343 17.0661C9.66427 16.0525 8.84085 14.5848 8.84085 13.1375C7.39199 13.1375 5.92427 12.3141 4.91227 11.5425C4.24913 11.0381 4.26485 10.0842 4.90127 9.54523Z" stroke="#0028DF" stroke-linecap="round" stroke-linejoin="round"/>
</g>
<defs>
<clipPath id="clip0_87_376">
<rect width="22" height="22" fill="white"/>
</clipPath>
</defs>
</svg>
