<svg width="71" height="71" viewBox="0 0 71 71" fill="none" xmlns="http://www.w3.org/2000/svg">
<path d="M13.7151 42.4721C11.9814 41.8824 10.2478 41.2924 8.51404 40.7028C8.33995 41.4983 8.16702 42.2953 7.99418 43.0912C11.7019 43.5914 15.4206 44.934 19.1627 46.7708C22.9059 48.6072 26.6663 50.9346 30.4537 53.3706C34.2435 55.808 38.0578 58.3537 41.9323 60.6183C45.8078 62.8814 49.7437 64.8701 53.8081 66.1602C54.2029 66.2851 54.6321 66.2752 55.0218 66.1513C55.412 66.0277 55.7627 65.7849 56.0151 65.4637C56.269 65.1424 56.4234 64.7451 56.4518 64.3369C56.4809 63.9286 56.3904 63.509 56.1465 63.1057C55.1582 61.4678 53.85 59.8238 52.2965 58.1464C50.7441 56.4715 48.9432 54.7661 46.9665 53.0408C43.0126 49.592 38.3471 46.0572 33.5606 42.602C28.7739 39.1482 23.8647 35.775 19.4471 32.6743C15.0332 29.5772 11.1011 26.7413 8.33995 24.4338C7.75878 23.9495 6.98878 23.7227 6.24452 23.7876C5.5003 23.8465 4.78551 24.2045 4.29142 24.7648C3.7936 25.3215 3.52384 26.073 3.55206 26.8185C3.57656 27.5652 3.89165 28.3033 4.4998 28.8771C10.1705 34.2278 16.9274 39.9157 24.0841 45.0835C31.2445 50.2501 38.7948 54.8996 46.1266 58.1609C46.8086 58.4638 47.5601 58.5241 48.2626 58.3707C48.9652 58.2209 49.6173 57.8485 50.103 57.3185C50.5911 56.7928 50.9085 56.1112 51.0018 55.3998C51.0973 54.6876 50.9759 53.9421 50.5886 53.2335C48.422 49.2682 45.391 45.9724 42.0232 43.0507C38.6514 40.1277 34.924 37.5603 31.2273 35.0713C27.5319 32.586 23.8647 30.178 20.6156 27.6572C17.3628 25.1388 14.5428 22.5125 12.4596 19.6582C11.2789 21.718 10.0969 23.7778 8.91618 25.8365C9.46423 25.8965 10.374 26.127 11.4751 26.5537C12.5785 26.9779 13.8806 27.5885 15.3029 28.3499C18.1536 29.8715 21.4861 31.9865 24.9633 34.3799C28.4441 36.7743 32.0794 39.4485 35.6009 42.1043C37.3602 43.432 39.0926 44.7561 40.765 46.0398C42.4374 47.3224 44.0474 48.5692 45.5714 49.7318C47.1923 50.9665 48.7174 52.1064 50.1104 53.1182C51.502 54.131 52.7598 55.0149 53.8621 55.7455C54.7659 56.3441 55.7517 56.535 56.6786 56.382C57.6055 56.2347 58.4696 55.7345 59.0596 55.0039C59.6542 54.278 59.967 53.329 59.9201 52.3911C59.8797 51.4532 59.4909 50.5274 58.8328 49.8777C53.9221 45.0284 48.4196 40.8536 42.9536 36.7548C37.4866 32.6596 32.039 28.627 27.2365 24.153C23.7605 20.9174 20.6278 17.4659 18.015 13.719C16.7362 15.2774 15.4586 16.8345 14.1798 18.3929C19.4409 21.0093 24.6616 24.2609 29.8259 27.7969C34.9914 31.3342 40.1065 35.156 45.1851 38.9189C49.4554 42.0844 53.6437 45.2833 57.717 48.3548C58.4881 48.9359 59.3969 49.1933 60.2858 49.1482C61.1747 49.1063 62.0452 48.752 62.7083 48.1585C63.3754 47.5702 63.8301 46.7473 63.9749 45.8694C64.1258 44.9929 63.976 44.0596 63.4992 43.2407C59.2261 35.9174 53.1166 29.2082 46.6357 22.9858C40.1534 16.7708 33.2773 11.0535 27.4681 5.91741C26.7619 5.29335 25.9061 4.98312 25.0503 4.97084C24.1945 4.9549 23.3375 5.24674 22.6704 5.78254C21.9998 6.31465 21.5241 7.08585 21.3512 7.92326C21.1722 8.76071 21.285 9.66312 21.7153 10.4515C23.8328 14.3271 26.811 17.6388 30.1803 20.6121C33.5557 23.5829 37.3407 26.2251 41.1903 28.7104C45.0392 31.1932 48.9542 33.5166 52.5773 35.7945C56.199 38.0704 59.5279 40.3066 62.1786 42.5445C65.0108 44.9351 69.344 39.8799 66.5459 37.4499C63.5138 34.8163 59.9851 32.3874 56.2924 29.9855C52.6018 27.586 48.7444 25.2185 45.0786 22.7761C41.4126 20.3362 37.9403 17.8203 35.0282 15.1805C32.1113 12.542 29.7732 9.78936 28.2626 6.92522C26.345 8.43698 24.4274 9.94754 22.5098 11.4593C28.3767 16.7732 35.1006 22.5003 41.2752 28.5277C47.4497 34.5466 53.053 40.8767 56.6872 47.19C58.6144 45.4857 60.5417 43.7813 62.4694 42.0773C58.4306 39.0069 54.2274 35.7825 49.8932 32.5689C44.7414 28.746 39.3255 25.0444 33.7739 21.6727C28.2222 18.3009 22.5392 15.2553 16.822 12.7406C16.0863 12.4169 15.3716 12.3752 14.7156 12.5481C14.0584 12.7173 13.4613 13.1084 13.0457 13.6442C12.6251 14.1763 12.3885 14.8495 12.3823 15.5275C12.3713 16.2055 12.5834 16.8909 12.988 17.4156C16.0863 21.4348 19.5905 25.0272 23.2529 28.4345C28.3105 33.1378 33.6795 37.5124 38.8598 41.8959C44.0389 46.2752 49.0152 50.6499 53.2894 55.2602C54.9459 53.3031 56.6023 51.3478 58.2591 49.3921C57.3183 48.708 56.16 47.8251 54.8429 46.8063C53.5262 45.786 52.0477 44.6287 50.4448 43.388C48.9368 42.2207 47.3198 40.9786 45.6363 39.6875C43.9515 38.3977 42.1971 37.0626 40.4058 35.7175C36.8206 33.0286 33.0873 30.3043 29.4434 27.8276C25.797 25.3509 22.2487 23.1219 18.9726 21.4066C17.3321 20.5483 15.7602 19.8164 14.2411 19.2487C12.7195 18.6822 11.2593 18.2678 9.75359 18.106C8.94685 18.0189 8.19035 18.1808 7.53438 18.5253C6.8772 18.8674 6.32181 19.4019 5.95644 20.0456C5.58862 20.6893 5.41084 21.4385 5.45127 22.179C5.4905 22.9184 5.73698 23.6527 6.20902 24.2842C8.95669 27.9575 12.3652 30.9909 15.9784 33.7226C19.5942 36.452 23.4307 38.8844 27.1138 41.2853C30.797 43.6823 34.3257 46.0473 37.3233 48.5596C40.3273 51.0719 42.7822 53.7153 44.4556 56.6479C45.9427 55.005 47.4302 53.3635 48.9173 51.7205C42.1531 48.872 34.832 44.6003 27.8237 39.7794C20.8117 34.9585 14.0989 29.5882 8.47602 24.5527C7.19599 26.0338 5.91718 27.515 4.63715 28.9961C7.733 31.4433 11.8147 34.2143 16.3512 37.217C20.8853 40.216 25.8645 43.4355 30.6879 46.7069C35.5089 49.9768 40.1729 53.3006 44.0509 56.4836C45.9896 58.074 47.7305 59.6285 49.192 61.111C50.6536 62.5921 51.8329 64.0046 52.6544 65.2759C53.4343 64.2584 54.2128 63.2406 54.9927 62.2218C51.3291 61.188 47.5676 59.4546 43.7556 57.3835C39.9425 55.3153 36.0801 52.9158 32.1849 50.5828C28.2884 48.2504 24.3563 45.9848 20.3776 44.1899C16.399 42.3947 12.3689 41.0705 8.28112 40.6523C7.94394 40.6183 7.63861 40.7102 7.40076 40.8902C7.16166 41.0681 6.99123 41.3368 6.93361 41.6297C6.87351 41.9215 6.92626 42.2353 7.07831 42.4916C7.22787 42.7504 7.47431 42.9527 7.76122 43.0397C9.51329 43.5729 11.2654 44.1051 13.0175 44.6386C13.5876 44.8115 14.1651 44.4043 14.338 43.8686C14.5096 43.3315 14.2791 42.6645 13.7151 42.4721Z" fill="#FFA610"/>
</svg>
