<svg width="144" height="74" viewBox="0 0 144 74" fill="none" xmlns="http://www.w3.org/2000/svg">
<path fill-rule="evenodd" clip-rule="evenodd" d="M77.4157 25.9111C79.4353 25.8047 81.285 26.5007 81.6968 27.5225L84.1542 33.6142C84.2615 33.5823 84.3716 33.5528 84.4854 33.5259C85.7058 33.2369 87.1292 33.2859 88.264 33.6559L88.372 33.6912L89.1827 32.0762C89.5996 31.2465 90.9827 30.6397 92.643 30.5587C94.3026 30.4776 95.8837 30.9397 96.5965 31.7143L96.9824 32.1332C97.6549 31.8468 98.5081 31.6764 99.4182 31.6655C101.001 31.6467 102.453 32.114 103.111 32.8539L105.877 35.9622L111.436 29.1053C112.08 28.3108 113.627 27.8105 115.3 27.8558C116.973 27.9012 118.409 28.4823 118.887 29.3072L121.75 34.2493L122.636 33.6624C123.261 33.2481 124.163 32.9795 125.145 32.8993V30.7251C125.145 29.7743 126.426 28.9501 128.23 28.7403C130.035 28.5304 131.882 28.9907 132.679 29.849L140.015 37.7519C140.956 38.7664 140.119 39.9811 138.145 40.4647C136.171 40.9487 133.808 40.5187 132.866 39.5042L132.769 39.3998C132.288 40.0033 131.254 40.4691 129.954 40.6157C128.138 40.8206 126.288 40.3485 125.509 39.4805L124.901 38.8041L123.286 39.8749C122.377 40.4777 120.887 40.7688 119.428 40.6282C117.969 40.488 116.785 39.94 116.361 39.2089L114.47 35.9455L109.7 41.8285C109.094 42.5752 107.686 43.0665 106.112 43.0802C104.538 43.0939 103.097 42.6274 102.443 41.8918L99.4362 38.5115C98.7846 38.7731 97.9761 38.9292 97.1149 38.9422C95.8636 38.9614 94.6885 38.6758 93.9224 38.1903C93.4991 38.4582 92.9447 38.6702 92.3024 38.8004C91.2937 39.0054 90.1741 38.9877 89.2014 38.759L87.8903 43.4721C87.6181 44.4507 86.0168 45.1874 84.0937 45.2181C82.1713 45.2492 80.4836 44.5654 80.0927 43.5971L79.5059 42.143C79.2848 42.1963 79.0508 42.24 78.8075 42.2722C77.0579 42.5038 75.2248 42.0975 74.3521 41.2846L68.6976 36.0181L61.0668 41.4874C60.2915 42.0431 59.025 42.3617 57.6954 42.3351C56.3659 42.3088 55.151 41.941 54.4616 41.356L52.1788 39.4198L51.1529 42.7576C50.8846 43.6304 49.5511 44.3146 47.8523 44.4507C46.1535 44.5869 44.4777 44.1444 43.7044 43.3551L35.9241 35.4152L31.7351 44.4903C31.3028 45.4268 29.6531 46.0795 27.7809 46.055C25.9086 46.0302 24.3259 45.335 23.9873 44.3886L22.4418 40.0684L19.9162 44.4167C19.3873 45.3272 17.7026 45.9285 15.8576 45.8649C14.0126 45.8016 12.4985 45.0904 12.2101 44.1521L11.6786 42.4224L10.7693 46.1342C10.4961 47.2494 8.51561 48.0393 6.34569 47.8991C4.17577 47.7589 2.63815 46.741 2.91131 45.6258L7.30723 27.6814C7.55354 26.6758 9.20213 25.9167 11.1741 25.9008C13.146 25.8849 14.8401 26.617 15.1477 27.6181L17.3138 34.6674L19.564 30.7934C20.0876 29.8921 21.7451 29.2926 23.5729 29.3435C25.4007 29.3944 26.9223 30.0824 27.2533 31.0076L28.3735 34.1389L30.7242 29.0463C31.1083 28.2143 32.4634 27.5944 34.1159 27.4948C35.7684 27.3952 37.3659 27.837 38.1142 28.6007L45.2481 35.8812L46.0447 33.2895C46.304 32.4457 47.5614 31.7749 49.1927 31.6102C50.824 31.4455 52.4817 31.8219 53.3431 32.5526L58.1265 36.61L65.9162 31.0268C66.7081 30.4592 68.0111 30.14 69.3677 30.1811C70.7244 30.2222 71.9452 30.618 72.6018 31.2295L73.8596 32.4009V27.9355C73.8596 26.892 75.3954 26.0176 77.4157 25.9111Z" fill="black"/>
</svg>
